<?xml version="1.0" encoding="UTF-8" standalone="no"?>
<!DOCTYPE svg PUBLIC "-//W3C//DTD SVG 1.1//EN" "http://www.w3.org/Graphics/SVG/1.1/DTD/svg11.dtd">
<svg width="100%" height="100%" viewBox="0 0 1152 864" version="1.1" xmlns="http://www.w3.org/2000/svg" xmlns:xlink="http://www.w3.org/1999/xlink" xml:space="preserve" xmlns:serif="http://www.serif.com/" style="fill-rule:evenodd;clip-rule:evenodd;stroke-linecap:round;stroke-linejoin:round;stroke-miterlimit:1.5;">
    <g transform="matrix(1.03075,0,0,1.03075,-126.236,-52.8465)">
        <circle cx="573.721" cy="498.788" r="95.978" style="fill:rgb(254,99,131);"/>
    </g>
    <g transform="matrix(1,0,0,1,-48.0305,-32.5921)">
        <path d="M518.033,433.474L568.486,483.738C568.486,483.738 572.856,487.692 573.098,491.313C573.339,494.935 571.746,497.832 570.201,499.522C568.656,501.212 520.396,550.234 520.396,550.234C520.396,550.234 516.981,554.141 513.335,554.203C509.688,554.265 507.896,553.338 504.404,550.093C500.912,546.849 499.038,544.508 499.038,544.508C499.038,544.508 494.91,539.935 499.359,535.708C503.809,531.48 530.488,505.12 530.488,505.12L457.339,504.758C457.339,504.758 450.096,504.517 450.157,496.309C450.217,488.1 450.277,486.471 450.277,486.471C450.277,486.471 449.613,480.254 458.485,480.315C467.358,480.375 530.202,480.025 530.202,480.025L501.653,452.213C501.653,452.213 493.664,444.278 502.259,437.412C510.853,430.545 507.763,433.152 507.763,433.152C507.763,433.152 512.225,428.323 518.033,433.474Z" style="fill:white;stroke:black;stroke-opacity:0;stroke-width:1px;"/>
    </g>
    <g transform="matrix(1.03075,0,0,1.03075,168.808,-399.352)">
        <circle cx="573.721" cy="498.788" r="95.978" style="fill:rgb(254,99,131);"/>
    </g>
    <g transform="matrix(1,0,0,1,247.014,-379.098)">
        <path d="M518.033,433.474L568.486,483.738C568.486,483.738 572.856,487.692 573.098,491.313C573.339,494.935 571.746,497.832 570.201,499.522C568.656,501.212 520.396,550.234 520.396,550.234C520.396,550.234 516.981,554.141 513.335,554.203C509.688,554.265 507.896,553.338 504.404,550.093C500.912,546.849 499.038,544.508 499.038,544.508C499.038,544.508 494.91,539.935 499.359,535.708C503.809,531.48 530.488,505.12 530.488,505.12L457.339,504.758C457.339,504.758 450.096,504.517 450.157,496.309C450.217,488.1 450.277,486.471 450.277,486.471C450.277,486.471 449.613,480.254 458.485,480.315C467.358,480.375 530.202,480.025 530.202,480.025L501.653,452.213C501.653,452.213 493.664,444.278 502.259,437.412C510.853,430.545 507.763,433.152 507.763,433.152C507.763,433.152 512.225,428.323 518.033,433.474Z" style="fill:white;stroke:black;stroke-opacity:0;stroke-width:1px;"/>
    </g>
    <g transform="matrix(1.03075,0,0,1.03075,-462.449,-378.768)">
        <circle cx="573.721" cy="498.788" r="95.978" style="fill:rgb(254,99,131);"/>
    </g>
    <g transform="matrix(1,0,0,1,-384.244,-358.513)">
        <path d="M518.033,433.474L568.486,483.738C568.486,483.738 572.856,487.692 573.098,491.313C573.339,494.935 571.746,497.832 570.201,499.522C568.656,501.212 520.396,550.234 520.396,550.234C520.396,550.234 516.981,554.141 513.335,554.203C509.688,554.265 507.896,553.338 504.404,550.093C500.912,546.849 499.038,544.508 499.038,544.508C499.038,544.508 494.91,539.935 499.359,535.708C503.809,531.48 530.488,505.12 530.488,505.12L457.339,504.758C457.339,504.758 450.096,504.517 450.157,496.309C450.217,488.1 450.277,486.471 450.277,486.471C450.277,486.471 449.613,480.254 458.485,480.315C467.358,480.375 530.202,480.025 530.202,480.025L501.653,452.213C501.653,452.213 493.664,444.278 502.259,437.412C510.853,430.545 507.763,433.152 507.763,433.152C507.763,433.152 512.225,428.323 518.033,433.474Z" style="fill:white;stroke:black;stroke-opacity:0;stroke-width:1px;"/>
    </g>
    <g transform="matrix(1.03075,0,0,1.03075,417.537,201.029)">
        <circle cx="573.721" cy="498.788" r="95.978" style="fill:rgb(254,99,131);"/>
    </g>
    <g transform="matrix(1,0,0,1,495.743,221.283)">
        <path d="M518.033,433.474L568.486,483.738C568.486,483.738 572.856,487.692 573.098,491.313C573.339,494.935 571.746,497.832 570.201,499.522C568.656,501.212 520.396,550.234 520.396,550.234C520.396,550.234 516.981,554.141 513.335,554.203C509.688,554.265 507.896,553.338 504.404,550.093C500.912,546.849 499.038,544.508 499.038,544.508C499.038,544.508 494.91,539.935 499.359,535.708C503.809,531.48 530.488,505.12 530.488,505.12L457.339,504.758C457.339,504.758 450.096,504.517 450.157,496.309C450.217,488.1 450.277,486.471 450.277,486.471C450.277,486.471 449.613,480.254 458.485,480.315C467.358,480.375 530.202,480.025 530.202,480.025L501.653,452.213C501.653,452.213 493.664,444.278 502.259,437.412C510.853,430.545 507.763,433.152 507.763,433.152C507.763,433.152 512.225,428.323 518.033,433.474Z" style="fill:white;stroke:black;stroke-opacity:0;stroke-width:1px;"/>
    </g>
    <g transform="matrix(-1.03075,-1.2623e-16,1.2623e-16,-1.03075,1056.49,699.227)">
        <circle cx="573.721" cy="498.788" r="95.978" style="fill:rgb(254,99,131);"/>
    </g>
    <g transform="matrix(-1,-1.22465e-16,1.22465e-16,-1,978.28,678.972)">
        <path d="M518.033,433.474L568.486,483.738C568.486,483.738 572.856,487.692 573.098,491.313C573.339,494.935 571.746,497.832 570.201,499.522C568.656,501.212 520.396,550.234 520.396,550.234C520.396,550.234 516.981,554.141 513.335,554.203C509.688,554.265 507.896,553.338 504.404,550.093C500.912,546.849 499.038,544.508 499.038,544.508C499.038,544.508 494.91,539.935 499.359,535.708C503.809,531.48 530.488,505.12 530.488,505.12L457.339,504.758C457.339,504.758 450.096,504.517 450.157,496.309C450.217,488.1 450.277,486.471 450.277,486.471C450.277,486.471 449.613,480.254 458.485,480.315C467.358,480.375 530.202,480.025 530.202,480.025L501.653,452.213C501.653,452.213 493.664,444.278 502.259,437.412C510.853,430.545 507.763,433.152 507.763,433.152C507.763,433.152 512.225,428.323 518.033,433.474Z" style="fill:white;stroke:black;stroke-opacity:0;stroke-width:1px;"/>
    </g>
    <g transform="matrix(6.3115e-17,1.03075,-1.03075,6.3115e-17,1262.29,-148.952)">
        <circle cx="573.721" cy="498.788" r="95.978" style="fill:rgb(254,99,131);"/>
    </g>
    <g transform="matrix(6.12323e-17,1,-1,6.12323e-17,1242.03,-70.7466)">
        <path d="M518.033,433.474L568.486,483.738C568.486,483.738 572.856,487.692 573.098,491.313C573.339,494.935 571.746,497.832 570.201,499.522C568.656,501.212 520.396,550.234 520.396,550.234C520.396,550.234 516.981,554.141 513.335,554.203C509.688,554.265 507.896,553.338 504.404,550.093C500.912,546.849 499.038,544.508 499.038,544.508C499.038,544.508 494.91,539.935 499.359,535.708C503.809,531.48 530.488,505.12 530.488,505.12L457.339,504.758C457.339,504.758 450.096,504.517 450.157,496.309C450.217,488.1 450.277,486.471 450.277,486.471C450.277,486.471 449.613,480.254 458.485,480.315C467.358,480.375 530.202,480.025 530.202,480.025L501.653,452.213C501.653,452.213 493.664,444.278 502.259,437.412C510.853,430.545 507.763,433.152 507.763,433.152C507.763,433.152 512.225,428.323 518.033,433.474Z" style="fill:white;stroke:black;stroke-opacity:0;stroke-width:1px;"/>
    </g>
    <g transform="matrix(-1.03075,1.2623e-16,-1.2623e-16,-1.03075,1600.26,949.671)">
        <circle cx="573.721" cy="498.788" r="95.978" style="fill:rgb(254,99,131);"/>
    </g>
    <g transform="matrix(-1,1.22465e-16,-1.22465e-16,-1,1522.05,929.417)">
        <path d="M518.033,433.474L568.486,483.738C568.486,483.738 572.856,487.692 573.098,491.313C573.339,494.935 571.746,497.832 570.201,499.522C568.656,501.212 520.396,550.234 520.396,550.234C520.396,550.234 516.981,554.141 513.335,554.203C509.688,554.265 507.896,553.338 504.404,550.093C500.912,546.849 499.038,544.508 499.038,544.508C499.038,544.508 494.91,539.935 499.359,535.708C503.809,531.48 530.488,505.12 530.488,505.12L457.339,504.758C457.339,504.758 450.096,504.517 450.157,496.309C450.217,488.1 450.277,486.471 450.277,486.471C450.277,486.471 449.613,480.254 458.485,480.315C467.358,480.375 530.202,480.025 530.202,480.025L501.653,452.213C501.653,452.213 493.664,444.278 502.259,437.412C510.853,430.545 507.763,433.152 507.763,433.152C507.763,433.152 512.225,428.323 518.033,433.474Z" style="fill:white;stroke:black;stroke-opacity:0;stroke-width:1px;"/>
    </g>
    <g transform="matrix(6.3115e-17,-1.03075,1.03075,6.3115e-17,-361.197,1014.9)">
        <circle cx="573.721" cy="498.788" r="95.978" style="fill:rgb(254,99,131);"/>
    </g>
    <g transform="matrix(6.12323e-17,-1,1,6.12323e-17,-340.943,936.695)">
        <path d="M518.033,433.474L568.486,483.738C568.486,483.738 572.856,487.692 573.098,491.313C573.339,494.935 571.746,497.832 570.201,499.522C568.656,501.212 520.396,550.234 520.396,550.234C520.396,550.234 516.981,554.141 513.335,554.203C509.688,554.265 507.896,553.338 504.404,550.093C500.912,546.849 499.038,544.508 499.038,544.508C499.038,544.508 494.91,539.935 499.359,535.708C503.809,531.48 530.488,505.12 530.488,505.12L457.339,504.758C457.339,504.758 450.096,504.517 450.157,496.309C450.217,488.1 450.277,486.471 450.277,486.471C450.277,486.471 449.613,480.254 458.485,480.315C467.358,480.375 530.202,480.025 530.202,480.025L501.653,452.213C501.653,452.213 493.664,444.278 502.259,437.412C510.853,430.545 507.763,433.152 507.763,433.152C507.763,433.152 512.225,428.323 518.033,433.474Z" style="fill:white;stroke:black;stroke-opacity:0;stroke-width:1px;"/>
    </g>
    <g transform="matrix(6.3115e-17,1.03075,-1.03075,6.3115e-17,744.243,120.361)">
        <circle cx="573.721" cy="498.788" r="95.978" style="fill:rgb(254,99,131);"/>
    </g>
    <g transform="matrix(6.12323e-17,1,-1,6.12323e-17,723.988,198.567)">
        <path d="M518.033,433.474L568.486,483.738C568.486,483.738 572.856,487.692 573.098,491.313C573.339,494.935 571.746,497.832 570.201,499.522C568.656,501.212 520.396,550.234 520.396,550.234C520.396,550.234 516.981,554.141 513.335,554.203C509.688,554.265 507.896,553.338 504.404,550.093C500.912,546.849 499.038,544.508 499.038,544.508C499.038,544.508 494.91,539.935 499.359,535.708C503.809,531.48 530.488,505.12 530.488,505.12L457.339,504.758C457.339,504.758 450.096,504.517 450.157,496.309C450.217,488.1 450.277,486.471 450.277,486.471C450.277,486.471 449.613,480.254 458.485,480.315C467.358,480.375 530.202,480.025 530.202,480.025L501.653,452.213C501.653,452.213 493.664,444.278 502.259,437.412C510.853,430.545 507.763,433.152 507.763,433.152C507.763,433.152 512.225,428.323 518.033,433.474Z" style="fill:white;stroke:black;stroke-opacity:0;stroke-width:1px;"/>
    </g>
    <g transform="matrix(6.3115e-17,-1.03075,1.03075,6.3115e-17,168.853,1306.51)">
        <circle cx="573.721" cy="498.788" r="95.978" style="fill:rgb(254,99,131);"/>
    </g>
    <g transform="matrix(6.12323e-17,-1,1,6.12323e-17,189.107,1228.31)">
        <path d="M518.033,433.474L568.486,483.738C568.486,483.738 572.856,487.692 573.098,491.313C573.339,494.935 571.746,497.832 570.201,499.522C568.656,501.212 520.396,550.234 520.396,550.234C520.396,550.234 516.981,554.141 513.335,554.203C509.688,554.265 507.896,553.338 504.404,550.093C500.912,546.849 499.038,544.508 499.038,544.508C499.038,544.508 494.91,539.935 499.359,535.708C503.809,531.48 530.488,505.12 530.488,505.12L457.339,504.758C457.339,504.758 450.096,504.517 450.157,496.309C450.217,488.1 450.277,486.471 450.277,486.471C450.277,486.471 449.613,480.254 458.485,480.315C467.358,480.375 530.202,480.025 530.202,480.025L501.653,452.213C501.653,452.213 493.664,444.278 502.259,437.412C510.853,430.545 507.763,433.152 507.763,433.152C507.763,433.152 512.225,428.323 518.033,433.474Z" style="fill:white;stroke:black;stroke-opacity:0;stroke-width:1px;"/>
    </g>
    <g transform="matrix(6.3115e-17,1.03075,-1.03075,6.3115e-17,1533.31,-421.697)">
        <circle cx="573.721" cy="498.788" r="95.978" style="fill:rgb(254,99,131);"/>
    </g>
    <g transform="matrix(6.12323e-17,1,-1,6.12323e-17,1513.06,-343.491)">
        <path d="M518.033,433.474L568.486,483.738C568.486,483.738 572.856,487.692 573.098,491.313C573.339,494.935 571.746,497.832 570.201,499.522C568.656,501.212 520.396,550.234 520.396,550.234C520.396,550.234 516.981,554.141 513.335,554.203C509.688,554.265 507.896,553.338 504.404,550.093C500.912,546.849 499.038,544.508 499.038,544.508C499.038,544.508 494.91,539.935 499.359,535.708C503.809,531.48 530.488,505.12 530.488,505.12L457.339,504.758C457.339,504.758 450.096,504.517 450.157,496.309C450.217,488.1 450.277,486.471 450.277,486.471C450.277,486.471 449.613,480.254 458.485,480.315C467.358,480.375 530.202,480.025 530.202,480.025L501.653,452.213C501.653,452.213 493.664,444.278 502.259,437.412C510.853,430.545 507.763,433.152 507.763,433.152C507.763,433.152 512.225,428.323 518.033,433.474Z" style="fill:white;stroke:black;stroke-opacity:0;stroke-width:1px;"/>
    </g>
</svg>
