<?xml version="1.0" encoding="UTF-8" standalone="no"?>
<!DOCTYPE svg PUBLIC "-//W3C//DTD SVG 1.1//EN" "http://www.w3.org/Graphics/SVG/1.1/DTD/svg11.dtd">
<svg width="100%" height="100%" viewBox="0 0 512 512" version="1.1" xmlns="http://www.w3.org/2000/svg" xmlns:xlink="http://www.w3.org/1999/xlink" xml:space="preserve" xmlns:serif="http://www.serif.com/" style="fill-rule:evenodd;clip-rule:evenodd;stroke-linejoin:round;stroke-miterlimit:2;">
    <g transform="matrix(0.836601,0,0,0.836601,0,0)">
        <path d="M612,510C612,566.1 566.1,612 510,612L102,612C45.9,612 0,566.1 0,510L0,102C0,45.9 45.9,0 102,0L510,0C566.1,0 612,45.9 612,102L612,510Z" style="fill:rgb(86,61,124);fill-rule:nonzero;"/>
    </g>
    <g transform="matrix(0.836601,0,0,0.836601,0,0)">
        <path d="M166.3,133L339.8,133C371.8,133 397.5,140.3 416.8,155C436.1,169.7 445.8,191.8 445.8,221.5C445.8,239.5 441.4,254.9 432.6,267.7C423.8,280.5 411.2,290.5 394.8,297.5L394.8,298.5C416.8,303.2 433.5,313.6 444.8,329.7C456.1,345.9 461.8,366.1 461.8,390.5C461.8,404.5 459.3,417.6 454.3,429.7C449.3,441.9 441.5,452.4 430.8,461.2C420.1,470 406.5,477 389.8,482.2C373.1,487.4 353.3,490 330.3,490L166.3,490L166.3,133ZM228.8,282.5L330.8,282.5C345.8,282.5 358.3,278.3 368.3,269.7C378.3,261.1 383.3,248.9 383.3,232.9C383.3,214.9 378.8,202.2 369.8,194.9C360.8,187.6 347.8,183.9 330.8,183.9L228.8,183.9L228.8,282.5ZM228.8,439L339.3,439C358.3,439 373.1,434.1 383.5,424.2C394,414.4 399.3,400.4 399.3,382.4C399.3,364.7 394.1,351.2 383.5,341.6C372.9,332 358.3,327.4 339.3,327.4L228.8,327.4L228.8,439Z" style="fill:white;fill-rule:nonzero;"/>
    </g>
</svg>
