<?xml version="1.0" encoding="UTF-8" standalone="no"?>
<!DOCTYPE svg PUBLIC "-//W3C//DTD SVG 1.1//EN" "http://www.w3.org/Graphics/SVG/1.1/DTD/svg11.dtd">
<svg width="100%" height="100%" viewBox="0 0 1177 495" version="1.1" xmlns="http://www.w3.org/2000/svg" xmlns:xlink="http://www.w3.org/1999/xlink" xml:space="preserve" xmlns:serif="http://www.serif.com/" style="fill-rule:evenodd;clip-rule:evenodd;stroke-linejoin:round;stroke-miterlimit:2;">
    <ellipse cx="588.5" cy="473.25" rx="588.5" ry="21" style="fill:rgb(63,61,86);"/>
    <g transform="matrix(1,0,0,1,-11.5,-202.87)">
        <path d="M1059,558.69C1061.18,554.875 1062.31,550.546 1062.27,546.15C1062.27,534.82 1055.27,525.63 1046.59,525.63C1037.91,525.63 1030.92,534.82 1030.92,546.15C1030.88,550.546 1032.01,554.875 1034.19,558.69C1029.84,566.473 1029.84,575.987 1034.19,583.77C1029.84,591.549 1029.84,601.061 1034.19,608.84C1029.84,616.623 1029.84,626.137 1034.19,633.92C1032.01,637.735 1030.88,642.064 1030.92,646.46C1030.92,657.79 1037.92,666.98 1046.59,666.98C1055.26,666.98 1062.27,657.79 1062.27,646.46C1062.31,642.064 1061.18,637.735 1059,633.92C1063.36,626.137 1063.36,616.623 1059,608.84C1063.36,601.061 1063.36,591.549 1059,583.77C1063.36,575.987 1063.36,566.473 1059,558.69Z" style="fill:rgb(63,61,86);fill-rule:nonzero;"/>
    </g>
    <ellipse cx="1035.05" cy="318.2" rx="15.67" ry="20.52" style="fill:rgb(63,61,86);"/>
    <ellipse cx="1035.05" cy="293.12" rx="15.67" ry="20.52" style="fill:rgb(63,61,86);"/>
    <g transform="matrix(1,0,0,1,-11.5,-202.87)">
        <path d="M987.88,324.37C985.738,321.644 983.787,318.774 982.04,315.78L1023.23,309.02L978.68,309.35C970.05,290.568 969.533,269.035 977.25,249.86L1037.01,280.86L981.9,240.35C995.295,217.15 1020.13,202.811 1046.92,202.811C1088.11,202.811 1122,236.703 1122,277.891C1122,294.742 1116.33,311.112 1105.9,324.35C1109.24,328.591 1112.12,333.185 1114.46,338.05L1061,365.84L1118,346.71C1126.12,370.723 1121.56,397.283 1105.89,417.21C1116.3,430.443 1121.97,446.803 1121.97,463.643C1121.97,504.83 1088.08,538.723 1046.89,538.723C1005.7,538.723 971.81,504.83 971.81,463.643C971.81,446.803 977.476,430.443 987.89,417.21C966.536,390.064 966.536,351.516 987.89,324.37L987.88,324.37Z" style="fill:rgb(87,184,148);fill-rule:nonzero;"/>
    </g>
    <g transform="matrix(1,0,0,1,-11.5,-202.87)">
        <path d="M1122,370.79C1122.03,387.628 1116.36,403.992 1105.93,417.21C1116.34,430.443 1122.01,446.803 1122.01,463.643C1122.01,504.83 1088.12,538.723 1046.93,538.723C1005.74,538.723 971.85,504.83 971.85,463.643C971.85,446.803 977.516,430.443 987.93,417.21C977.82,404.44 1122,362.37 1122,370.79Z" style="fill-opacity:0.1;fill-rule:nonzero;"/>
    </g>
    <path d="M1005.5,27.42C1005.5,16.15 996.35,7 985.08,7L191.92,7C180.65,7 171.5,16.15 171.5,27.42L171.5,442.58C171.5,453.85 180.65,463 191.92,463L985.08,463C996.35,463 1005.5,453.85 1005.5,442.58L1005.5,27.42Z" style="fill:rgb(242,242,242);"/>
    <g transform="matrix(1.0037,0,0,1,-1.6278,0)">
        <path d="M172,29.5L440,29.5L440,463.5L192.42,463.5C181.218,463.5 172,454.282 172,443.08L172,29.5Z" style="fill:rgb(120,184,255);fill-rule:nonzero;"/>
    </g>
    <g transform="matrix(1.00023,0,0,1.00609,-11.7375,-204.342)">
        <path d="M1017,230.29L1017,241.88L183,241.88L183,230.29C183,219.093 192.213,209.88 203.41,209.88L996.59,209.88C1007.79,209.88 1017,219.093 1017,230.29Z" style="fill:rgb(63,61,86);fill-rule:nonzero;stroke:rgb(63,61,86);stroke-width:1px;"/>
    </g>
    <circle cx="193" cy="23.5" r="6" style="fill:rgb(120,184,255);"/>
    <circle cx="208" cy="23.5" r="6" style="fill:rgb(120,184,255);"/>
    <circle cx="223" cy="23.5" r="6" style="fill:rgb(120,184,255);"/>
    <path d="M957.5,94.36C957.5,93.676 956.944,93.12 956.26,93.12L611.74,93.12C611.056,93.12 610.5,93.676 610.5,94.36L610.5,102.88C610.5,103.564 611.056,104.12 611.74,104.12L956.26,104.12C956.944,104.12 957.5,103.564 957.5,102.88L957.5,94.36Z" style="fill:rgb(108,99,255);fill-opacity:0.3;"/>
    <path d="M952.5,115.36C952.5,114.676 951.944,114.12 951.26,114.12L880.74,114.12C880.056,114.12 879.5,114.676 879.5,115.36L879.5,137.88C879.5,138.564 880.056,139.12 880.74,139.12L951.26,139.12C951.944,139.12 952.5,138.564 952.5,137.88L952.5,115.36Z" style="fill:rgb(120,184,255);"/>
    <path d="M957.5,228.12C957.5,227.436 956.944,226.88 956.26,226.88L611.74,226.88C611.056,226.88 610.5,227.436 610.5,228.12L610.5,236.64C610.5,237.324 611.056,237.88 611.74,237.88L956.26,237.88C956.944,237.88 957.5,237.324 957.5,236.64L957.5,228.12Z" style="fill:rgb(108,99,255);fill-opacity:0.3;"/>
    <path d="M952.5,249.12C952.5,248.436 951.944,247.88 951.26,247.88L880.74,247.88C880.056,247.88 879.5,248.436 879.5,249.12L879.5,271.64C879.5,272.324 880.056,272.88 880.74,272.88L951.26,272.88C951.944,272.88 952.5,272.324 952.5,271.64L952.5,249.12Z" style="fill:rgb(120,184,255);"/>
    <path d="M957.5,364.12C957.5,363.436 956.944,362.88 956.26,362.88L611.74,362.88C611.056,362.88 610.5,363.436 610.5,364.12L610.5,372.64C610.5,373.324 611.056,373.88 611.74,373.88L956.26,373.88C956.944,373.88 957.5,373.324 957.5,372.64L957.5,364.12Z" style="fill:rgb(108,99,255);fill-opacity:0.3;"/>
    <path d="M952.5,385.12C952.5,384.436 951.944,383.88 951.26,383.88L880.74,383.88C880.056,383.88 879.5,384.436 879.5,385.12L879.5,407.64C879.5,408.324 880.056,408.88 880.74,408.88L951.26,408.88C951.944,408.88 952.5,408.324 952.5,407.64L952.5,385.12Z" style="fill:rgb(120,184,255);"/>
    <circle cx="535.19" cy="249.88" r="49.52" style="fill:rgb(63,61,86);"/>
    <g transform="matrix(1,0,0,1,-11.5,-202.87)">
        <path d="M590.39,478.87C590.336,478.989 590.265,479.1 590.18,479.2C589.641,480.092 589.057,480.957 588.43,481.79C582.939,489.391 575.393,495.272 566.68,498.74C565.82,499.1 564.94,499.43 564.05,499.74C563.226,499.08 562.463,498.347 561.77,497.55C559.705,495.204 558.321,492.337 557.77,489.26C556.452,489.514 555.112,489.641 553.77,489.64C553.637,489.65 553.503,489.65 553.37,489.64C543.07,489.46 534.23,481.92 530.28,471.16L530.12,470.7C527.711,463.692 527.44,456.123 529.34,448.96C529.39,448.72 529.47,448.48 529.54,448.25C532.92,436.64 541.84,428.18 552.45,427.51L554.74,427.51C568.18,428 579,441 579.5,457.26C585.098,460.937 588.074,467.552 587.11,474.18C588.451,475.555 589.559,477.139 590.39,478.87Z" style="fill:rgb(25,37,52);fill-rule:nonzero;"/>
    </g>
    <g transform="matrix(1,0,0,1,-11.5,-202.87)">
        <path d="M590.18,479.2C589.641,480.092 589.057,480.957 588.43,481.79C587.706,480.491 586.807,479.296 585.76,478.24C585.875,477.415 585.935,476.583 585.94,475.75C585.94,469.941 583.007,464.507 578.15,461.32C577.6,444.72 566.31,431.46 552.48,431.46C542.6,431.46 534.03,438.2 529.72,448.1C529.61,448.36 529.51,448.61 529.39,448.88C529.03,449.74 528.71,450.61 528.39,451.52C528.743,449.692 529.234,447.893 529.86,446.14L530,446C533.85,435.39 542.45,427.86 552.55,427.41L554.84,427.41C568.09,428.21 578.7,441.15 579.21,457.24C584.822,460.906 587.807,467.527 586.84,474.16C588.245,475.628 589.376,477.335 590.18,479.2Z" style="fill-opacity:0.1;fill-rule:nonzero;"/>
    </g>
    <g transform="matrix(1,0,0,1,-11.5,-202.87)">
        <path d="M538,465C538.124,466.013 538.007,467.041 537.66,468C537.07,469.37 535.66,470.6 536.05,472C536.452,472.89 537.255,473.537 538.21,473.74C542.52,475.2 547.21,474.33 551.77,474.53C553.289,474.663 554.815,474.716 556.34,474.69C557.874,474.656 559.358,474.138 560.58,473.21C558.211,472.059 555.975,470.654 553.91,469.02C553.408,468.648 552.955,468.215 552.56,467.73C551.712,466.358 551.304,464.76 551.39,463.15L551.39,458.39C548.13,458.39 544.88,458.34 541.62,458.34C540.62,458.34 537.39,458.09 537.02,459.22C536.84,459.78 537.54,461.43 537.65,462.06C537.818,463.033 537.935,464.015 538,465Z" style="fill:rgb(160,97,106);fill-rule:nonzero;"/>
    </g>
    <g transform="matrix(1,0,0,1,-11.5,-202.87)">
        <path d="M538,465C538.124,466.013 538.007,467.041 537.66,468C537.07,469.37 535.66,470.6 536.05,472C536.452,472.89 537.255,473.537 538.21,473.74C542.52,475.2 547.21,474.33 551.77,474.53C553.289,474.663 554.815,474.716 556.34,474.69C557.874,474.656 559.358,474.138 560.58,473.21C558.211,472.059 555.975,470.654 553.91,469.02C553.408,468.648 552.955,468.215 552.56,467.73C551.712,466.358 551.304,464.76 551.39,463.15L551.39,458.39C548.13,458.39 544.88,458.34 541.62,458.34C540.62,458.34 537.39,458.09 537.02,459.22C536.84,459.78 537.54,461.43 537.65,462.06C537.818,463.033 537.935,464.015 538,465Z" style="fill-opacity:0.1;fill-rule:nonzero;"/>
    </g>
    <circle cx="533.2" cy="249.2" r="11.49" style="fill:rgb(160,97,106);"/>
    <g transform="matrix(1,0,0,1,-11.5,-202.87)">
        <path d="M566.49,485.4C566.49,485.71 566.43,486.04 566.38,486.4C566.008,488.264 565.462,490.088 564.75,491.85C564.328,493.045 563.82,494.208 563.23,495.33C562.8,496.1 562.23,496.81 561.77,497.56L561.11,498.63C560.689,499.351 560.331,500.107 560.04,500.89C558.111,501.384 556.149,501.741 554.17,501.96C552.235,502.192 550.289,502.309 548.34,502.31C537.89,502.31 526.62,499.6 518.63,494.06C518.63,494.06 519.8,493.25 519.63,493.06C519.63,492.6 519.58,492.15 519.58,491.69C519.568,490.506 519.761,489.328 520.15,488.21C520.49,487.138 521.084,486.164 521.88,485.37C522.88,484.37 524.22,483.75 525.29,482.79C526.657,481.468 527.624,479.787 528.08,477.94C528.33,477.14 528.51,476.29 528.68,475.47C528.832,474.349 529.142,473.255 529.6,472.22C529.664,472.088 529.737,471.961 529.82,471.84C529.972,471.583 530.153,471.345 530.36,471.13C531.38,470.136 532.573,469.336 533.88,468.77C534.97,468.21 536.5,467.77 537.26,468.7L537.26,468.77C537.509,469.342 537.719,469.93 537.89,470.53C538.5,471.79 540.2,471.95 541.58,471.92C546.461,471.818 551.33,471.41 556.16,470.7L558.5,470.32C560.19,470.04 561.37,471.52 562.32,472.96C564.78,476.67 566.86,480.94 566.49,485.4Z" style="fill:rgb(120,184,255);fill-rule:nonzero;"/>
    </g>
    <g transform="matrix(1,0,0,1,-11.5,-202.87)">
        <path d="M531.4,486.18C530.33,486.42 529.71,487.5 529.21,488.48C528.262,490.09 527.845,491.959 528.02,493.82C527.991,494.551 528.068,495.282 528.25,495.99C528.434,496.703 528.886,497.319 529.51,497.71" style="fill:none;fill-rule:nonzero;stroke:black;stroke-opacity:0.1;stroke-width:1px;stroke-linejoin:miter;stroke-miterlimit:10;"/>
    </g>
    <g transform="matrix(0.247675,-0.968843,0.968843,0.247675,-29.44,661.57)">
        <ellipse cx="547.6" cy="443.78" rx="6.34" ry="12.85" style="fill:rgb(25,37,52);"/>
    </g>
    <g transform="matrix(1,0,0,1,-11.5,-202.87)">
        <path d="M546.71,447.55C540.6,445.99 536.08,442.55 535.71,439.39C535.426,439.746 535.222,440.159 535.11,440.6C534.24,443.99 539.11,448.16 545.98,449.92C552.85,451.68 559.13,450.35 559.98,446.92C560.076,446.541 560.104,446.148 560.06,445.76C558.23,448.28 552.7,449.08 546.71,447.55Z" style="fill-opacity:0.1;fill-rule:nonzero;"/>
    </g>
    <g transform="matrix(1,0,0,1,-11.5,-202.87)">
        <path d="M566.79,493.55C566.79,495.29 566.79,497.02 566.68,498.74C565.82,499.1 564.94,499.43 564.05,499.74C562.739,500.195 561.404,500.576 560.05,500.88C558.121,501.374 556.159,501.731 554.18,501.95C553.83,497.81 553.04,493.82 553.43,489.62C553.755,486.403 554.86,483.313 556.65,480.62C557.352,479.441 558.357,478.47 559.56,477.81C560.785,477.16 562.282,477.277 563.39,478.11C564.071,478.821 564.547,479.702 564.77,480.66C565.445,482.536 565.986,484.458 566.39,486.41C566.39,486.62 566.46,486.85 566.49,487.07C566.767,489.218 566.867,491.385 566.79,493.55Z" style="fill:rgb(160,97,106);fill-rule:nonzero;"/>
    </g>
    <g transform="matrix(1,0,0,1,-11.5,-202.87)">
        <path d="M596.2,588.75C596.223,597.031 594.16,605.187 590.2,612.46C589.76,613.26 589.3,614.07 588.78,614.87C588.726,614.989 588.655,615.1 588.57,615.2C588.031,616.092 587.447,616.957 586.82,617.79C583.021,623.059 578.211,627.519 572.67,630.91L572.38,631.11C570.559,632.203 568.672,633.182 566.73,634.04C566.19,634.28 565.63,634.51 565.07,634.74C564.51,634.97 563.99,635.18 563.43,635.36C563.15,635.48 562.85,635.58 562.56,635.68C562.527,635.676 562.493,635.676 562.46,635.68C561.85,635.9 561.22,636.09 560.6,636.28L560.13,636.39C559.57,636.56 559.01,636.7 558.45,636.82C556.518,637.315 554.553,637.672 552.57,637.89C550.649,638.123 548.715,638.24 546.78,638.24L546.18,638.24C543.497,638.232 540.819,637.984 538.18,637.5L537.7,637.42C537.21,637.34 536.7,637.24 536.23,637.12L535.3,636.91C534.314,636.694 533.339,636.427 532.38,636.11C530.426,635.524 528.512,634.813 526.65,633.98L526.44,633.89C523.713,632.655 521.106,631.172 518.65,629.46C518.441,629.337 518.24,629.2 518.05,629.05C505.028,619.767 497.28,604.728 497.28,588.736C497.28,561.575 519.63,539.226 546.79,539.226C573.95,539.226 596.3,561.575 596.3,588.736L596.3,588.74L596.2,588.75Z" style="fill:rgb(63,61,86);fill-rule:nonzero;"/>
    </g>
    <g transform="matrix(1,0,0,1,-11.5,-202.87)">
        <path d="M558.67,576.82C558.426,582.407 553.763,586.872 548.17,586.872C542.577,586.872 537.914,582.407 537.67,576.82L537.67,576.32C537.67,570.56 542.41,565.82 548.17,565.82C553.93,565.82 558.67,570.56 558.67,576.32C558.66,576.48 558.67,576.65 558.67,576.82Z" style="fill:rgb(25,37,52);fill-rule:nonzero;"/>
    </g>
    <g transform="matrix(1,0,0,1,-11.5,-202.87)">
        <path d="M558.67,576.82C558.426,582.407 553.763,586.872 548.17,586.872C542.577,586.872 537.914,582.407 537.67,576.82L537.67,576.32C543.755,571.341 552.585,571.341 558.67,576.32C558.66,576.48 558.67,576.65 558.67,576.82Z" style="fill-opacity:0.1;fill-rule:nonzero;"/>
    </g>
    <circle cx="536.66" cy="387.22" r="16.59" style="fill:rgb(25,37,52);"/>
    <g transform="matrix(1,0,0,1,-11.5,-202.87)">
        <path d="M538.11,574.5C538.114,569.26 542.036,564.783 547.23,564.09C546.763,564.027 546.292,563.995 545.82,563.995C540.054,563.995 535.31,568.739 535.31,574.505C535.31,580.271 540.054,585.015 545.82,585.015C546.292,585.015 546.763,584.983 547.23,584.92C542.032,584.226 538.109,579.744 538.11,574.5Z" style="fill:rgb(25,37,52);fill-rule:nonzero;"/>
    </g>
    <g transform="matrix(1,0,0,1,-11.5,-202.87)">
        <path d="M529.44,596.83C525.512,593.359 524.75,587.454 527.67,583.1C527.317,583.413 526.983,583.747 526.67,584.1C524.873,586.042 523.874,588.593 523.874,591.239C523.874,597.004 528.618,601.749 534.384,601.749C537.486,601.749 540.434,600.375 542.43,598C542.736,597.651 543.02,597.284 543.28,596.9C539.319,600.33 533.366,600.3 529.44,596.83Z" style="fill:rgb(25,37,52);fill-rule:nonzero;"/>
    </g>
    <g transform="matrix(1,0,0,1,-11.5,-202.87)">
        <path d="M539.48,611.13C538.616,611.3 537.781,611.593 537,612C535.62,613 535.67,615 536.08,616.63C537.02,620.35 539.32,623.92 542.84,625.44C545.019,626.244 547.342,626.584 549.66,626.44C552.17,626.44 555.01,626.1 556.57,624.12C557.272,623.076 557.752,621.898 557.98,620.66C558.75,617.66 559.53,614.56 559.25,611.46C557.73,611.59 556.03,611.68 554.83,610.72C553.63,609.76 553.36,607.93 552.83,606.41C552.772,606.166 552.635,605.948 552.44,605.79C552.221,605.691 551.978,605.656 551.74,605.69C550.144,605.758 548.545,605.692 546.96,605.49C545.96,605.36 543.54,604.33 542.8,605.2C542.26,605.83 542.6,607.75 542.18,608.64C541.65,609.797 540.676,610.695 539.48,611.13Z" style="fill:rgb(255,193,199);fill-rule:nonzero;"/>
    </g>
    <g transform="matrix(1,0,0,1,-11.5,-202.87)">
        <path d="M539.48,611.13C538.616,611.3 537.781,611.593 537,612C535.62,613 535.67,615 536.08,616.63C537.02,620.35 539.32,623.92 542.84,625.44C545.019,626.244 547.342,626.584 549.66,626.44C552.17,626.44 555.01,626.1 556.57,624.12C557.272,623.076 557.752,621.898 557.98,620.66C558.75,617.66 559.53,614.56 559.25,611.46C557.73,611.59 556.03,611.68 554.83,610.72C553.63,609.76 553.36,607.93 552.83,606.41C552.772,606.166 552.635,605.948 552.44,605.79C552.221,605.691 551.978,605.656 551.74,605.69C550.144,605.758 548.545,605.692 546.96,605.49C545.96,605.36 543.54,604.33 542.8,605.2C542.26,605.83 542.6,607.75 542.18,608.64C541.65,609.797 540.676,610.695 539.48,611.13Z" style="fill-opacity:0.05;fill-rule:nonzero;"/>
    </g>
    <circle cx="536.43" cy="395.23" r="11.6" style="fill:rgb(255,193,199);"/>
    <g transform="matrix(1,0,0,1,-11.5,-202.87)">
        <path d="M573.36,623.23C573.28,623.33 573.2,623.45 573.11,623.55L572.62,624.19C570.15,627.15 568.15,630.472 566.69,634.04C566.15,634.28 565.59,634.51 565.03,634.74C564.47,634.97 563.95,635.18 563.39,635.36C563.11,635.48 562.81,635.58 562.52,635.68C562.487,635.676 562.453,635.676 562.42,635.68C561.81,635.9 561.18,636.09 560.56,636.28L560.09,636.39C559.53,636.56 558.97,636.7 558.41,636.82C556.478,637.315 554.513,637.672 552.53,637.89C550.609,638.123 548.675,638.24 546.74,638.24L546.14,638.24C543.457,638.232 540.779,637.984 538.14,637.5L537.66,637.42C537.17,637.34 536.66,637.24 536.19,637.12L535.26,636.91C534.274,636.694 533.299,636.427 532.34,636.11C532.608,634.434 533.355,632.871 534.49,631.61C532.24,628.92 528.54,627.86 526.15,625.32C525.942,625.078 525.748,624.825 525.57,624.56C525.445,624.368 525.341,624.164 525.26,623.95C525.189,623.781 525.145,623.602 525.13,623.42C525.055,623.052 525.024,622.676 525.04,622.3C524.98,619.46 525.11,616.22 527.31,614.44C528.39,613.683 529.606,613.14 530.89,612.84C533.123,612.141 535.297,611.265 537.39,610.22C537.582,610.667 537.709,611.138 537.77,611.62C537.97,612.78 537.95,614 538.22,615.15C538.744,617.2 540.014,618.984 541.78,620.15C543.542,621.304 545.548,622.033 547.64,622.28C549.7,622.58 551.34,621.51 553.28,620.78C554.139,620.505 554.933,620.056 555.61,619.46C556.486,618.449 556.953,617.147 556.92,615.81C556.92,614.49 556.77,613.17 556.85,611.81C556.852,611.672 556.869,611.534 556.9,611.4C556.906,610.689 557.365,610.056 558.04,609.83C558.415,609.799 558.791,609.868 559.13,610.03L562.87,611.46C564.491,612.021 566.052,612.741 567.53,613.61C570.837,615.758 572.987,619.304 573.36,623.23Z" style="fill:rgb(120,184,255);fill-rule:nonzero;"/>
    </g>
    <g transform="matrix(1,0,0,1,-11.5,-202.87)">
        <path d="M538.09,637.51L537.61,637.43C537.12,637.35 536.61,637.25 536.14,637.13L535.21,636.92C534.224,636.704 533.249,636.437 532.29,636.12C530.336,635.534 528.422,634.823 526.56,633.99C525.624,630.944 525.284,627.745 525.56,624.57C525.682,623.208 525.963,621.866 526.4,620.57C528.5,622.57 532.08,621.44 534.46,623.04C535.105,623.497 535.633,624.1 536,624.8C536.666,626.081 537.119,627.463 537.34,628.89C537.49,629.67 537.63,630.46 537.75,631.25L537.75,632C537.83,632.56 537.9,633.14 537.93,633.71C538.09,635 538.09,636.24 538.09,637.51Z" style="fill-opacity:0.1;fill-rule:nonzero;"/>
    </g>
    <g transform="matrix(1,0,0,1,-11.5,-202.87)">
        <path d="M537.61,637.43C537.12,637.35 536.61,637.25 536.14,637.13L535.21,636.92C534.224,636.704 533.249,636.437 532.29,636.12C530.336,635.534 528.422,634.823 526.56,633.99L526.35,633.9C525.202,630.537 524.769,626.97 525.08,623.43C525.223,622.152 525.498,620.892 525.9,619.67C528,621.67 531.58,620.56 533.96,622.16C534.877,622.819 535.574,623.739 535.96,624.8C536.349,625.827 536.64,626.888 536.83,627.97C537.05,629.14 537.26,630.31 537.4,631.5C537.431,631.665 537.448,631.832 537.45,632L537.45,632.79C537.64,634.32 537.63,635.88 537.61,637.43Z" style="fill:rgb(120,184,255);fill-rule:nonzero;"/>
    </g>
    <g transform="matrix(1,0,0,1,-11.5,-202.87)">
        <path d="M572.34,631.11C570.519,632.203 568.632,633.182 566.69,634.04C566.15,634.28 565.59,634.51 565.03,634.74C564.47,634.97 563.95,635.18 563.39,635.36C563.11,635.48 562.81,635.58 562.52,635.68C562.487,635.676 562.453,635.676 562.42,635.68C561.81,635.9 561.18,636.09 560.56,636.28L560.09,636.39C560.09,635.5 560.09,634.58 560.19,633.68C560.26,632.97 560.34,632.26 560.44,631.55C560.44,631.42 560.44,631.29 560.49,631.16C560.5,631.077 560.5,630.993 560.49,630.91C560.61,630.23 560.74,629.54 560.87,628.86C561.077,627.43 561.531,626.046 562.21,624.77C562.585,624.083 563.116,623.494 563.76,623.05C566.14,621.45 569.76,622.54 571.76,620.58C572.154,621.742 572.425,622.942 572.57,624.16C572.841,626.475 572.763,628.818 572.34,631.11Z" style="fill-opacity:0.1;fill-rule:nonzero;"/>
    </g>
    <g transform="matrix(1,0,0,1,-11.5,-202.87)">
        <path d="M572.63,630.91L572.34,631.11C570.519,632.203 568.632,633.182 566.69,634.04C566.15,634.28 565.59,634.51 565.03,634.74C564.47,634.97 563.95,635.18 563.39,635.36C563.11,635.48 562.81,635.58 562.52,635.68C562.487,635.676 562.453,635.676 562.42,635.68C561.81,635.9 561.18,636.09 560.56,636.28C560.56,635.1 560.56,633.93 560.66,632.76C560.66,632.46 560.66,632.15 560.74,631.85L560.74,631.13C560.89,630.05 561.07,629 561.29,627.94C561.48,626.858 561.771,625.797 562.16,624.77C562.546,623.709 563.243,622.789 564.16,622.13C566.54,620.53 570.16,621.62 572.16,619.64C572.59,620.896 572.871,622.198 573,623.52C573.269,625.987 573.144,628.482 572.63,630.91Z" style="fill:rgb(120,184,255);fill-rule:nonzero;"/>
    </g>
    <ellipse cx="536.2" cy="384.32" rx="13.92" ry="9.28" style="fill:rgb(25,37,52);"/>
    <g transform="matrix(1,0,0,1,-11.5,-202.87)">
        <path d="M536.13,635.73L536.13,637.05C536.126,637.077 536.126,637.103 536.13,637.13L535.2,636.92C535.185,636.744 535.185,636.566 535.2,636.39C535.198,634.515 536.012,632.728 537.43,631.5C537.522,631.403 537.626,631.319 537.74,631.25C538.277,630.814 538.886,630.475 539.54,630.25C540.14,630.018 540.777,629.896 541.42,629.89C541.506,629.88 541.594,629.88 541.68,629.89C541.84,629.88 542,629.88 542.16,629.89L541.83,629.89C540.299,630.051 538.878,630.762 537.83,631.89C537.713,631.998 537.609,632.119 537.52,632.25C536.72,633.245 536.236,634.457 536.13,635.73Z" style="fill-opacity:0.05;fill-rule:nonzero;"/>
    </g>
    <g transform="matrix(1,0,0,1,-11.5,-202.87)">
        <path d="M546.31,636.39C546.309,637.016 546.235,637.641 546.09,638.25C543.407,638.242 540.729,637.994 538.09,637.51L537.61,637.43C537.12,637.35 536.61,637.25 536.14,637.13L536.14,635.73C536.225,634.388 536.682,633.096 537.46,632C537.549,631.862 537.653,631.735 537.77,631.62C538.236,631.038 538.837,630.578 539.52,630.28C540.045,630.03 540.619,629.9 541.2,629.9C541.266,629.89 541.334,629.89 541.4,629.9C541.536,629.89 541.674,629.89 541.81,629.9C544.34,630.33 546.31,633.07 546.31,636.39Z" style="fill:rgb(120,184,255);fill-rule:nonzero;"/>
    </g>
    <g transform="matrix(1,0,0,1,-11.5,-202.87)">
        <path d="M563.39,635.36C563.11,635.48 562.81,635.58 562.52,635.68C562.377,634.248 561.749,632.907 560.74,631.88L560.44,631.58C559.441,630.684 558.192,630.115 556.86,629.95L556.53,629.95C556.683,629.94 556.837,629.94 556.99,629.95C557.08,629.94 557.17,629.94 557.26,629.95C557.906,629.965 558.544,630.087 559.15,630.31C559.631,630.475 560.091,630.697 560.52,630.97C560.631,631.027 560.732,631.101 560.82,631.19C562.198,632.182 563.123,633.684 563.39,635.36Z" style="fill-opacity:0.05;fill-rule:nonzero;"/>
    </g>
    <g transform="matrix(1,0,0,1,-11.5,-202.87)">
        <path d="M562.52,635.68C562.487,635.676 562.453,635.676 562.42,635.68C561.81,635.9 561.18,636.09 560.56,636.28L560.09,636.39C559.53,636.56 558.97,636.7 558.41,636.82C556.478,637.315 554.513,637.672 552.53,637.89C552.429,637.386 552.378,636.874 552.38,636.36C552.38,633.04 554.38,630.3 556.89,629.92C557.023,629.91 557.157,629.91 557.29,629.92C557.353,629.91 557.417,629.91 557.48,629.92C558.068,629.918 558.649,630.047 559.18,630.3C559.677,630.521 560.131,630.829 560.52,631.21C560.63,631.292 560.73,631.386 560.82,631.49C561.823,632.667 562.419,634.137 562.52,635.68Z" style="fill:rgb(120,184,255);fill-rule:nonzero;"/>
    </g>
    <g transform="matrix(1,0,0,1,-11.5,-202.87)">
        <path d="M547.7,595.55C540.24,595.55 534.15,591.65 533.79,586.74L533.79,587.2C533.79,592.33 540.03,596.48 547.72,596.48C555.41,596.48 561.64,592.33 561.64,587.2L561.64,586.74C561.24,591.65 555.15,595.55 547.7,595.55Z" style="fill-opacity:0.1;fill-rule:nonzero;"/>
    </g>
    <g transform="matrix(1,0,0,1,-11.5,-202.87)">
        <path d="M497.17,319C497.153,327.277 499.216,335.428 503.17,342.7C503.62,343.51 504.08,344.32 504.59,345.11C504.648,345.23 504.722,345.341 504.81,345.44C505.361,346.324 505.958,347.179 506.6,348C508.677,350.889 511.072,353.536 513.74,355.89C514.235,356.365 514.756,356.812 515.3,357.23C517.013,358.661 518.832,359.962 520.74,361.12L521.04,361.32C522.86,362.41 524.744,363.392 526.68,364.26L528.35,364.95C528.9,365.18 529.42,365.4 529.99,365.58C530.27,365.69 530.56,365.79 530.86,365.89C531.16,365.99 530.86,365.89 530.86,365.89L531,365.89C531.607,366.11 532.227,366.31 532.86,366.49L533.32,366.6C533.88,366.77 534.45,366.92 535.01,367.03C535.77,367.23 536.52,367.4 537.3,367.54C538.47,367.77 539.68,367.97 540.88,368.11C542.801,368.34 544.735,368.453 546.67,368.45L547.26,368.45C549.943,368.433 552.62,368.183 555.26,367.7C555.422,367.684 555.582,367.657 555.74,367.62C556.23,367.54 556.74,367.44 557.21,367.32C557.53,367.26 557.82,367.19 558.14,367.11C559.14,366.89 560.14,366.63 561.06,366.32C561.65,366.13 562.23,365.95 562.81,365.75C563.98,365.34 565.15,364.9 566.27,364.4C566.445,364.342 566.615,364.272 566.78,364.19L567,364.09C568.48,363.423 569.92,362.68 571.32,361.86C572.51,361.18 573.67,360.44 574.79,359.66L574.86,359.66C575.042,359.554 575.216,359.433 575.38,359.3C588.425,350.02 596.19,334.966 596.19,318.957C596.19,291.797 573.84,269.447 546.68,269.447C519.52,269.447 497.17,291.797 497.17,318.957L497.17,319Z" style="fill:rgb(63,61,86);fill-rule:nonzero;"/>
    </g>
    <g transform="matrix(1,0,0,1,-11.5,-202.87)">
        <path d="M557.68,338.62C558.41,339.263 558.918,340.121 559.13,341.07C557.69,341.45 556.22,340.74 554.88,340.07C550.719,338.118 546.327,336.704 541.81,335.86C541.448,335.826 541.103,335.695 540.81,335.48C540.345,334.852 540.37,333.98 540.87,333.38C541.37,332.86 542.31,332.93 542.99,332.9C548.469,332.62 553.815,334.687 557.68,338.58L557.68,338.62Z" style="fill:rgb(108,99,255);fill-rule:nonzero;"/>
    </g>
    <g transform="matrix(1,0,0,1,-11.5,-202.87)">
        <path d="M543.05,334.64C542.445,336.153 541.249,337.356 539.74,337.97C538.93,338.26 538.06,338.31 537.24,338.54C536.39,338.717 535.671,339.284 535.3,340.07C535.19,340.419 535.139,340.784 535.15,341.15C535.02,344.6 534.92,348.15 536.3,351.35C537.49,354.09 539.67,356.25 541.83,358.3C544.35,360.71 547.02,363.15 550.34,364.23C552.28,364.86 554.57,364.93 556.18,363.68C556.812,363.132 557.361,362.495 557.81,361.79C558.933,360.319 559.873,358.717 560.61,357.02C561.98,353.5 561.52,349.56 561.04,345.81C561.037,345.587 560.951,345.373 560.8,345.21C560.591,345.08 560.34,345.037 560.1,345.09C558.343,345.269 556.658,344.299 555.93,342.69C555.723,341.976 555.645,341.231 555.7,340.49L555.77,336.21C555.803,335.751 555.749,335.289 555.61,334.85C555.217,334.137 554.582,333.587 553.82,333.3C551.483,332.13 549.047,331.17 546.54,330.43C545.44,330.11 544.6,329.57 544.11,330.75C543.62,331.93 543.62,333.4 543.05,334.64Z" style="fill:rgb(251,190,190);fill-rule:nonzero;"/>
    </g>
    <g transform="matrix(1,0,0,1,-11.5,-202.87)">
        <path d="M543.05,334.64C542.445,336.153 541.249,337.356 539.74,337.97C538.93,338.26 538.06,338.31 537.24,338.54C536.39,338.717 535.671,339.284 535.3,340.07C535.19,340.419 535.139,340.784 535.15,341.15C535.02,344.6 534.92,348.15 536.3,351.35C537.49,354.09 539.67,356.25 541.83,358.3C544.35,360.71 547.02,363.15 550.34,364.23C552.28,364.86 554.57,364.93 556.18,363.68C556.812,363.132 557.361,362.495 557.81,361.79C558.933,360.319 559.873,358.717 560.61,357.02C561.98,353.5 561.52,349.56 561.04,345.81C561.037,345.587 560.951,345.373 560.8,345.21C560.591,345.08 560.34,345.037 560.1,345.09C558.343,345.269 556.658,344.299 555.93,342.69C555.723,341.976 555.645,341.231 555.7,340.49L555.77,336.21C555.803,335.751 555.749,335.289 555.61,334.85C555.217,334.137 554.582,333.587 553.82,333.3C551.483,332.13 549.047,331.17 546.54,330.43C545.44,330.11 544.6,329.57 544.11,330.75C543.62,331.93 543.62,333.4 543.05,334.64Z" style="fill-opacity:0.1;fill-rule:nonzero;"/>
    </g>
    <circle cx="543.13" cy="122.18" r="13.06" style="fill:rgb(251,190,190);"/>
    <g transform="matrix(1,0,0,1,-11.5,-202.87)">
        <path d="M537.28,367.6C538.45,367.83 539.66,368.03 540.86,368.17C542.781,368.4 544.715,368.513 546.65,368.51L547.24,368.51C549.923,368.493 552.6,368.243 555.24,367.76C555.402,367.744 555.562,367.717 555.72,367.68C556.21,367.6 556.72,367.5 557.19,367.38C557.51,367.32 557.8,367.25 558.12,367.17C559.12,366.95 560.12,366.69 561.04,366.38C561.63,366.19 562.21,366.01 562.79,365.81C563.96,365.4 565.13,364.96 566.25,364.46C565.962,363.571 565.725,362.666 565.54,361.75C565.218,359.794 565.09,357.811 565.16,355.83C565.16,354.24 565.23,352.66 565.16,351.08C565.185,349.798 564.999,348.521 564.61,347.3C564.209,346.068 563.33,345.048 562.17,344.47C560.68,343.81 558.44,343.47 556.97,344.21C556.802,344.3 556.641,344.404 556.49,344.52C556.17,344.788 555.922,345.132 555.77,345.52C555.29,346.72 554.77,347.93 554.31,349.13C554.014,349.966 553.621,350.765 553.14,351.51C551.656,353.514 549.054,354.371 546.67,353.64C546.523,353.592 546.38,353.535 546.24,353.47C544.24,352.66 542.41,350.91 540.32,351.38C539.149,351.692 538.186,352.526 537.71,353.64C537.681,353.698 537.657,353.758 537.64,353.82C537.22,354.866 536.976,355.974 536.92,357.1C536.618,360.602 536.739,364.127 537.28,367.6Z" style="fill:rgb(242,242,242);fill-rule:nonzero;"/>
    </g>
    <g transform="matrix(1,0,0,1,-11.5,-202.87)">
        <path d="M513.74,355.92C514.235,356.395 514.756,356.842 515.3,357.26C517.013,358.691 518.832,359.992 520.74,361.15L521.04,361.35C522.86,362.44 524.744,363.422 526.68,364.29L528.35,364.98C528.9,365.21 529.42,365.43 529.99,365.61C530.27,365.72 530.56,365.82 530.86,365.92C531.16,366.02 530.86,365.92 530.86,365.92L531,365.92C531.607,366.14 532.227,366.34 532.86,366.52L533.32,366.63C533.88,366.8 534.45,366.95 535.01,367.06C535.77,367.26 536.52,367.43 537.3,367.57C538.47,367.8 539.68,368 540.88,368.14C542.801,368.37 544.735,368.483 546.67,368.48L547.26,368.48C549.943,368.463 552.62,368.213 555.26,367.73C555.422,367.714 555.582,367.687 555.74,367.65C556.23,367.57 556.74,367.47 557.21,367.35C557.53,367.29 557.82,367.22 558.14,367.14C559.14,366.92 560.14,366.66 561.06,366.35C561.65,366.16 562.23,365.98 562.81,365.78C563.98,365.37 565.15,364.93 566.27,364.43C566.445,364.372 566.615,364.302 566.78,364.22L567,364.12C568.48,363.453 569.92,362.71 571.32,361.89C572.302,359.272 573.137,356.601 573.82,353.89C573.816,353.837 573.816,353.783 573.82,353.73C572.26,350.96 570.88,348.08 569.33,345.31C568.434,343.19 566.465,341.707 564.18,341.43C563.097,341.073 561.97,340.864 560.83,340.81C560.182,340.75 559.541,340.639 558.91,340.48C557.61,340.19 556.17,339.91 555.69,340.48C555.648,340.51 555.622,340.558 555.62,340.61C555.44,341.281 555.522,341.997 555.85,342.61C556.07,343.24 556.36,343.9 556.51,344.44C556.599,344.698 556.65,344.967 556.66,345.24C556.695,346.411 556.655,347.584 556.54,348.75C556.26,350.45 555.32,351.95 554.88,353.6C554.68,354.38 554.58,355.19 554.45,355.98C554.172,357.764 553.706,359.514 553.06,361.2C552.944,361.558 552.772,361.896 552.55,362.2C551.73,363.2 550.37,362.82 549.08,362.63C548.14,361.83 548.19,360.41 548.08,359.21C547.804,357.194 547.189,355.24 546.26,353.43L545.92,352.71C544.92,350.64 543.92,348.58 542.98,346.5C541.77,343.92 540.52,340.97 541.52,338.3C541.81,337.5 542.28,336.79 542.6,336.02C542.652,335.907 542.696,335.79 542.73,335.67C542.822,335.375 542.872,335.069 542.88,334.76C542.952,334.202 542.784,333.639 542.42,333.21C542.367,333.128 542.299,333.057 542.22,333C542.187,332.965 542.146,332.937 542.1,332.92C541.433,332.536 540.619,332.499 539.92,332.82C539.525,332.963 539.141,333.134 538.77,333.33C536.807,334.436 534.913,335.662 533.1,337C532.568,337.316 532.154,337.797 531.92,338.37C531.878,338.75 531.814,339.127 531.73,339.5C531.45,340.21 530.6,340.42 529.87,340.58C523.771,341.988 518.516,345.851 515.35,351.25C514.82,352.109 514.403,353.034 514.11,354C513.932,354.628 513.808,355.271 513.74,355.92Z" style="fill:rgb(120,184,255);fill-rule:nonzero;"/>
    </g>
    <g transform="matrix(1,0,0,1,-11.5,-202.87)">
        <path d="M560.38,317.68C558.61,319.49 555.78,319.56 553.25,319.52L553.33,318.52L549.78,319.79C550.703,319.106 551.492,318.259 552.11,317.29C551.607,316.915 550.927,316.872 550.38,317.18C549.848,317.489 549.403,317.93 549.09,318.46C547.047,321.52 546.568,325.373 547.8,328.84C547.065,329.201 546.191,329.144 545.51,328.69C544.843,328.233 544.331,327.584 544.04,326.83C543.83,326.35 543.61,325.83 543.11,325.64C542.668,325.532 542.205,325.738 541.99,326.14C541.78,326.528 541.696,326.972 541.75,327.41C541.82,328.41 542.57,329.41 542.75,330.41C542.93,331.41 544.41,332.21 543.63,332.88C542.716,333.224 541.761,333.449 540.79,333.55C540.4,333.433 540.092,333.129 539.97,332.74C539.18,331 539.46,328.97 538.97,327.12C538.516,325.652 537.819,324.269 536.91,323.03C536.691,322.651 536.429,322.299 536.13,321.98C535.815,321.75 535.556,321.453 535.37,321.11C535.24,320.75 535.49,320.22 535.87,320.29C535.25,319.689 534.581,319.14 533.87,318.65C534.57,317.77 535.25,316.87 535.87,315.97C536.1,315.65 536.34,315.26 536.17,314.91C536.074,314.747 535.936,314.612 535.77,314.52L534,313.32C534,312.48 535.67,312.79 535.93,312C535.995,311.792 535.995,311.568 535.93,311.36L535.31,309.1L537.67,310.17C537.943,310.327 538.256,310.4 538.57,310.38C539.19,310.29 539.49,309.56 539.57,308.93C539.506,308.3 539.588,307.663 539.81,307.07L543.01,307.07C543.08,306.535 542.94,305.994 542.62,305.56L550.5,305.12C551.839,304.967 553.195,305.062 554.5,305.4C554.916,305.596 555.37,305.699 555.83,305.7C556.28,305.7 556.74,305.23 556.61,304.79C557.792,305.457 558.873,306.289 559.82,307.26C560.072,307.566 560.381,307.821 560.73,308.01C561.091,308.196 561.532,308.145 561.84,307.88C562.06,307.65 562.16,307.24 562.48,307.22C562.8,307.2 562.84,307.38 562.96,307.53C563.411,308.109 563.778,308.749 564.05,309.43C564.616,309.353 565.171,309.205 565.7,308.99C565.195,309.528 565.076,310.327 565.4,310.99C565.66,311.66 566.14,312.23 566.46,312.87C566.775,313.562 566.987,314.297 567.09,315.05C567.25,315.99 567.25,317.18 566.42,317.64C565.618,317.916 564.725,317.715 564.12,317.12C562.21,315.76 561.86,316.16 560.38,317.68Z" style="fill:rgb(25,37,52);fill-rule:nonzero;"/>
    </g>
    <g transform="matrix(1,0,0,1,-11.5,-202.87)">
        <path d="M515.3,357.26C517.013,358.691 518.832,359.992 520.74,361.15L521.04,361.35C522.86,362.44 524.744,363.422 526.68,364.29L528.35,364.98C528.9,365.21 529.42,365.43 529.99,365.61C530.27,365.72 530.56,365.82 530.86,365.92C531.16,366.02 530.86,365.92 530.86,365.92C530.51,364.92 530.28,363.92 529.97,362.92C529.145,360.249 527.671,357.823 525.68,355.86C523.96,354.14 521.22,351.63 518.68,353.15C517.906,353.672 517.229,354.325 516.68,355.08C516.193,355.636 515.776,356.251 515.44,356.91C515.39,357 515.35,357.12 515.3,357.26Z" style="fill:rgb(120,184,255);fill-rule:nonzero;"/>
    </g>
    <g transform="matrix(1,0,0,1,-11.5,-202.87)">
        <path d="M562.85,365.8C564.02,365.39 565.19,364.95 566.31,364.45C566.485,364.392 566.655,364.322 566.82,364.24L567.04,364.14C568.52,363.473 569.96,362.73 571.36,361.91C572.55,361.23 573.71,360.49 574.83,359.71L574.9,359.71C574.81,358.595 574.81,357.475 574.9,356.36C574.958,355.986 574.934,355.604 574.83,355.24C574.691,354.952 574.501,354.691 574.27,354.47C574.123,354.323 573.986,354.166 573.86,354C572.73,352.73 571.81,351.36 569.86,351.56C567.91,351.76 566.23,353.44 565.41,355.31C565.32,355.49 565.247,355.677 565.19,355.87C564.632,357.607 564.198,359.382 563.89,361.18C563.63,362.29 563.3,363.36 563.06,364.47C563,364.88 562.91,365.34 562.85,365.8Z" style="fill:rgb(120,184,255);fill-rule:nonzero;"/>
    </g>
    <g transform="matrix(1,0,0,1,-11.5,-202.87)">
        <path d="M337.43,660.43L336.99,660.67L337.43,660.43Z" style="fill:url(#_Linear1);fill-rule:nonzero;"/>
    </g>
    <g transform="matrix(1,0,0,1,-11.5,-202.87)">
        <path d="M276,606.42C272.14,617.54 276.65,635.59 278.74,643.64C280.125,649.464 281.042,655.39 281.48,661.36C286.184,662.16 290.997,662.052 295.66,661.04L292.28,644.45C294.69,634.62 292.28,608.36 292.28,608.36C292.28,608.36 297.75,598.21 298.28,582.74C298.75,567.52 302.5,562.6 302.62,562.44C310.35,566.44 320.18,609.65 320.18,609.65C319.37,620.12 320.34,636.23 323.56,644.93C325.513,650.456 326.336,656.319 325.98,662.17C327.245,663.079 328.848,663.386 330.36,663.01C334.96,662.27 340.48,658.3 340.48,658.3C340.48,658.3 338.71,611.3 337.42,609.49C336.13,607.68 337.42,597.57 337.42,597.57L335.32,581.13C335.32,581.13 335.64,553.26 332.58,548.43C329.94,544.25 329.33,536.92 329.21,534.99L329.21,534.52L324.55,528.93C324.55,528.93 279.44,525.55 276.05,528.93C275.22,529.76 274.71,531.65 274.4,534.03C273.47,541.34 274.54,553.26 274.54,553.26C274.54,553.26 275.89,562.12 277.83,571.14C278.99,576.558 278.99,582.162 277.83,587.58C278.446,593.919 277.825,600.318 276,606.42Z" style="fill:rgb(87,90,137);fill-rule:nonzero;"/>
    </g>
    <g transform="matrix(1,0,0,1,-11.5,-202.87)">
        <path d="M278.78,677.07C280.78,679.73 292.64,678.6 294.65,677.77C295.88,677.27 295.79,674.95 295.46,672.57C295.25,671.05 294.94,669.5 294.81,668.37C294.49,665.47 295.81,659.59 295.81,659.59C295.81,659.59 293.15,662.41 292.51,659.59C292.205,658.496 291.319,657.656 290.21,657.41C288.831,656.992 287.347,657.084 286.03,657.67C283.93,658.57 280.44,660.51 281.03,663.13C281.91,666.83 278.77,672.13 278.77,672.13C277.604,673.586 277.604,675.674 278.77,677.13L278.78,677.07Z" style="fill:rgb(203,206,218);fill-rule:nonzero;"/>
    </g>
    <g transform="matrix(1,0,0,1,-11.5,-202.87)">
        <path d="M278.78,677.07C280.78,679.73 292.64,678.6 294.65,677.77C295.88,677.27 295.79,674.95 295.46,672.57C294.19,673.16 292.02,673.66 288.46,673.32C287.619,673.243 286.774,673.217 285.93,673.24C283.366,673.362 280.797,673.311 278.24,673.09C277.657,674.411 277.867,675.952 278.78,677.07Z" style="fill-opacity:0.1;fill-rule:nonzero;"/>
    </g>
    <g transform="matrix(1,0,0,1,-11.5,-202.87)">
        <path d="M320.11,609.65C319.3,620.12 320.27,636.23 323.49,644.93C325.443,650.456 326.266,656.319 325.91,662.17C327.175,663.079 328.778,663.386 330.29,663.01C329.29,656.22 325.18,626.94 322.52,603.81C320.595,587.791 314.7,572.503 305.37,559.34L302.55,562.44C310.28,566.47 320.11,609.65 320.11,609.65Z" style="fill-opacity:0.1;fill-rule:nonzero;"/>
    </g>
    <g transform="matrix(1,0,0,1,-11.5,-202.87)">
        <path d="M283.62,440.32L285.62,449.99L295.26,466.18L307.14,461.11C307.14,461.11 323.29,444.19 313.14,441.77C311.923,441.515 310.774,441.003 309.77,440.27C308.006,438.865 307.026,436.692 307.14,434.44C307.219,432.043 307.78,429.686 308.79,427.51L288,421C288.85,423.732 289.351,426.562 289.49,429.42C289.65,435.08 287.54,437.87 285.82,439.2C285.168,439.715 284.42,440.096 283.62,440.32Z" style="fill:rgb(251,190,190);fill-rule:nonzero;"/>
    </g>
    <g transform="matrix(1,0,0,1,-11.5,-202.87)">
        <path d="M288,421C288.85,423.732 289.351,426.562 289.49,429.42C289.865,429.873 290.269,430.301 290.7,430.7C293.739,433.615 297.789,435.246 302,435.25C303.726,435.253 305.441,434.98 307.08,434.44C307.159,432.043 307.72,429.686 308.73,427.51L288,421Z" style="fill-opacity:0.1;fill-rule:nonzero;"/>
    </g>
    <g transform="matrix(1,0,0,1,-11.5,-202.87)">
        <path d="M285.58,418.25L285.58,418.34C285.58,427.359 293.001,434.78 302.02,434.78C311.039,434.78 318.46,427.359 318.46,418.34C318.46,409.321 311.039,401.9 302.02,401.9L301.93,401.9C292.96,401.9 285.58,409.281 285.58,418.25Z" style="fill:rgb(251,190,190);fill-rule:nonzero;"/>
    </g>
    <g transform="matrix(1,0,0,1,-11.5,-202.87)">
        <path d="M283.62,440.32L285.62,449.99L295.26,466.18L307.14,461.11C307.14,461.11 323.29,444.19 313.14,441.77C311.923,441.515 310.774,441.003 309.77,440.27C311.6,445.27 304.04,455.79 304.04,455.79C303.16,457.08 301.14,456.27 301.14,456.27C296.26,455.53 287.29,441.52 285.83,439.19C285.176,439.71 284.425,440.094 283.62,440.32Z" style="fill-opacity:0.1;fill-rule:nonzero;"/>
    </g>
    <g transform="matrix(1,0,0,1,-11.5,-202.87)">
        <path d="M274.31,534C277.17,534.65 293,538.16 299,537.28C305.61,536.28 318.45,535.67 318.45,535.67C318.45,535.67 326.63,536.11 329.14,534.96L329.14,534.49L324.48,528.9C324.48,528.9 279.37,525.52 275.98,528.9C275.13,529.76 274.62,531.65 274.31,534Z" style="fill-opacity:0.1;fill-rule:nonzero;"/>
    </g>
    <g transform="matrix(1,0,0,1,-11.5,-202.87)">
        <path d="M304,456.27C304,456.27 312.5,444.5 309.29,439.91L323.65,445.8C323.65,445.8 332.29,444.75 335.41,457.65C335.909,459.795 336.091,462.002 335.95,464.2C335.865,467.614 336.679,470.99 338.31,473.99C341.86,481.08 341.05,497.35 333.8,498.99C326.55,500.63 323.97,499.79 323.97,499.79C323.97,499.79 324.97,529.27 329.13,532.66C333.29,536.05 318.45,535.24 318.45,535.24C318.45,535.24 305.61,535.88 299,536.85C292.39,537.82 273.87,533.46 273.87,533.46C273.87,533.46 276.61,521.06 277.57,513.16C278.53,505.26 280.8,488.46 280.8,488.46L264.36,466.2C264.36,466.2 261.46,452.75 271.61,446.79C281.76,440.83 285.61,439.36 285.61,439.36C285.61,439.36 295.81,455.97 301.13,456.78C301.1,456.76 303.12,457.57 304,456.27Z" style="fill:rgb(246,246,246);fill-rule:nonzero;"/>
    </g>
    <g transform="matrix(1,0,0,1,-11.5,-202.87)">
        <path d="M322.85,460.94C322.85,460.94 323.01,466.26 322.04,468.36C321.07,470.46 317.53,482.05 317.53,482.05L325.58,482.05C325.58,482.05 321.23,477.38 321.58,475.12C321.93,472.86 322.85,460.94 322.85,460.94Z" style="fill-opacity:0.1;fill-rule:nonzero;"/>
    </g>
    <g transform="matrix(1,0,0,1,-11.5,-202.87)">
        <path d="M299,501.06C299,501.06 316.79,496.71 318.45,493C320.11,489.29 324.68,481 324.68,481L322.8,478.47L314.15,485.26C314.15,485.26 303.84,493.48 299,494.26C294.16,495.04 299,501.06 299,501.06Z" style="fill:rgb(251,190,190);fill-rule:nonzero;"/>
    </g>
    <g transform="matrix(1,0,0,1,-11.5,-202.87)">
        <path d="M299,501.06C299,501.06 316.79,496.71 318.45,493C320.11,489.29 324.68,481 324.68,481L322.8,478.47L314.15,485.26C314.15,485.26 303.84,493.48 299,494.26C294.16,495.04 299,501.06 299,501.06Z" style="fill-opacity:0.05;fill-rule:nonzero;"/>
    </g>
    <g transform="matrix(1,0,0,1,-11.5,-202.87)">
        <path d="M283.62,480.12L283.62,489.77L285.17,489.77C292.833,489.77 300.37,491.721 307.07,495.44L309.98,497.05L310.76,497.49L315.76,486.24L311.09,482.05L310.85,482.05C309.7,482.16 304.76,482.58 302.67,481.87C300.58,481.16 298.21,479.05 292.34,480.55C289.46,481.29 286.99,484.55 284.19,483.55L283.62,480.12Z" style="fill:rgb(251,190,190);fill-rule:nonzero;"/>
    </g>
    <g transform="matrix(1,0,0,1,-11.5,-202.87)">
        <path d="M268.07,462.56L264.85,466.18L264.85,475C264.85,475 267.59,502.71 276.29,505.77C284.99,508.83 300.52,504 300.52,504C300.52,504 304.52,493.37 302.65,492.72C300.78,492.07 286.07,488.19 286.07,488.19C286.07,488.19 286.27,471.94 283.07,467.11C283.07,467.11 285.17,451.96 277.92,451.64C270.67,451.32 268.07,462.56 268.07,462.56Z" style="fill-opacity:0.1;fill-rule:nonzero;"/>
    </g>
    <g transform="matrix(1,0,0,1,-11.5,-202.87)">
        <path d="M267.59,462.56L264.36,466.18L264.36,475C264.36,475 267.1,502.71 275.8,505.77C284.5,508.83 300,504 300,504C300,504 304,493.37 302.14,492.72C300.28,492.07 285.55,488.19 285.55,488.19C285.55,488.19 285.76,471.94 282.55,467.11C282.55,467.11 284.64,451.96 277.39,451.64C270.14,451.32 267.59,462.56 267.59,462.56Z" style="fill:rgb(246,246,246);fill-rule:nonzero;"/>
    </g>
    <g transform="matrix(1,0,0,1,-11.5,-202.87)">
        <path d="M290.09,425.31C289.949,424.252 290.076,423.176 290.46,422.18C290.877,421.175 291.92,420.568 293,420.7C294.38,421.02 295,422.82 296.33,423.25C297.532,423.491 298.752,422.861 299.25,421.74C299.712,420.631 299.904,419.428 299.81,418.23L299.81,414.23C299.81,412.92 299.86,411.18 300.76,410.03C301.89,408.6 304.53,407.97 306.29,408.03C307.463,408.039 308.589,408.493 309.44,409.3C310.312,410.172 311.533,410.606 312.76,410.48C313.851,410.314 314.755,409.535 315.08,408.48C315.075,408.464 315.075,408.446 315.08,408.43C311.976,404.34 307.127,401.933 301.993,401.933C292.979,401.933 285.563,409.35 285.563,418.363C285.563,422.847 287.398,427.142 290.64,430.24C290.36,428.609 290.177,426.963 290.09,425.31Z" style="fill-opacity:0.1;fill-rule:nonzero;"/>
    </g>
    <g transform="matrix(1,0,0,1,-11.5,-202.87)">
        <path d="M309.07,460.54L304.07,481.27C304.07,481.27 300.05,481.24 309.07,460.54Z" style="fill-opacity:0.1;fill-rule:nonzero;"/>
    </g>
    <g transform="matrix(1,0,0,1,-11.5,-202.87)">
        <path d="M291.83,457.08C291.83,457.08 298.44,467.9 295.83,479.08L294.6,479.17C294.6,479.17 296.83,474 291.83,457.08Z" style="fill-opacity:0.1;fill-rule:nonzero;"/>
    </g>
    <g transform="matrix(1,0,0,1,-11.5,-202.87)">
        <path d="M287.64,518.3C287.64,518.3 279.53,515.62 278.94,521.84C278.94,521.84 280.47,517.57 287.64,518.3Z" style="fill-opacity:0.1;fill-rule:nonzero;"/>
    </g>
    <g transform="matrix(1,0,0,1,-11.5,-202.87)">
        <path d="M311.09,482.53C311.09,482.53 312.7,493.81 309.8,498.32C314.351,499.93 319.185,500.587 324,500.25L325,482.53L311.09,482.53Z" style="fill-opacity:0.1;fill-rule:nonzero;"/>
    </g>
    <g transform="matrix(1,0,0,1,-11.5,-202.87)">
        <path d="M310,497.05L310.78,497.49L315.78,486.24L311.11,482.05L310.86,482.05C310.92,482.59 312.22,492.28 310,497.05Z" style="fill-opacity:0.1;fill-rule:nonzero;"/>
    </g>
    <g transform="matrix(1,0,0,1,-11.5,-202.87)">
        <path d="M311.09,482.05C311.09,482.05 312.7,493.33 309.8,497.84C314.352,499.444 319.185,500.101 324,499.77L329.64,482.05L311.09,482.05Z" style="fill:rgb(246,246,246);fill-rule:nonzero;"/>
    </g>
    <g transform="matrix(1,0,0,1,-11.5,-202.87)">
        <path d="M325,670.21C325.19,671.859 326.485,673.178 328.13,673.4C332.5,674.06 343.04,675.72 345.7,676.99C349.09,678.6 362.46,677.47 363.1,675.86C363.283,675.212 363.2,674.517 362.87,673.93C362.415,672.944 361.658,672.128 360.71,671.6C360.389,671.429 360.055,671.285 359.71,671.17C357.19,670.33 352.44,668.55 351.15,666.68C351.15,666.68 345.22,661.49 343.53,658.68C342.885,657.56 341.72,656.835 340.43,656.75C339.02,656.69 337.43,657.4 336.81,660.49C336.81,660.49 329.08,664.9 326.99,661.03C326.99,661.03 326.66,666.97 325.38,668.6C325.046,669.065 324.909,669.644 325,670.21Z" style="fill:rgb(203,206,218);fill-rule:nonzero;"/>
    </g>
    <g transform="matrix(1,0,0,1,-11.5,-202.87)">
        <path d="M325,670.21C325.19,671.859 326.485,673.178 328.13,673.4C332.5,674.06 343.04,675.72 345.7,676.99C349.09,678.6 362.46,677.47 363.1,675.86C363.283,675.212 363.2,674.517 362.87,673.93C362.415,672.944 361.658,672.128 360.71,671.6C358.53,673.05 353.71,674.47 343.05,672.8C332.89,671.22 327.86,669.66 325.41,668.61C325.068,669.068 324.92,669.644 325,670.21Z" style="fill-opacity:0.1;fill-rule:nonzero;"/>
    </g>
    <g opacity="0.1">
        <g transform="matrix(1,0,0,1,-11.5,-202.87)">
            <path d="M281.06,406.76L281.06,406.69C280.751,405.494 280.586,404.265 280.57,403.03C280.648,404.028 280.791,405.021 281,406C281.074,406.246 281.094,406.505 281.06,406.76Z" style="fill-rule:nonzero;"/>
        </g>
    </g>
    <g transform="matrix(1,0,0,1,-11.5,-202.87)">
        <path d="M344.64,660.15C344.64,660.15 342.96,663.15 336.86,660.5" style="fill-opacity:0.1;fill-rule:nonzero;"/>
    </g>
    <g transform="matrix(1,0,0,1,-11.5,-202.87)">
        <path d="M293.05,660.86C293.05,660.86 287.79,667.06 281.16,662.86" style="fill-opacity:0.1;fill-rule:nonzero;"/>
    </g>
    <g transform="matrix(1,0,0,1,-11.5,-202.87)">
        <path d="M277.74,587.58C277.74,587.58 281.45,589.9 281.58,591.23C281.71,592.56 279.66,590.23 279.66,590.23L277.74,587.58Z" style="fill-opacity:0.1;fill-rule:nonzero;"/>
    </g>
    <g transform="matrix(1,0,0,1,-11.5,-202.87)">
        <path d="M276.27,605.39C277.561,606.468 279.17,607.097 280.85,607.18C283.63,607.3 283.4,610.92 281.58,609.84C279.7,608.494 277.924,607.006 276.27,605.39Z" style="fill-opacity:0.1;fill-rule:nonzero;"/>
    </g>
    <g transform="matrix(1,0,0,1,-11.5,-202.87)">
        <path d="M275.56,607.71C275.56,607.71 277.35,616.48 278.8,614.79" style="fill-opacity:0.1;fill-rule:nonzero;"/>
    </g>
    <g transform="matrix(1,0,0,1,-11.5,-202.87)">
        <path d="M94.79,662.63C97.79,657.12 94.38,650.37 90.5,645.46C86.62,640.55 81.89,635.46 81.99,629.17C82.14,620.17 91.69,614.85 99.32,610.08C104.986,606.543 110.209,602.344 114.88,597.57C116.834,595.732 118.452,593.566 119.66,591.17C121.24,587.65 121.19,583.65 121.09,579.8C120.757,566.953 120.123,554.123 119.19,541.31" style="fill:none;fill-rule:nonzero;stroke:rgb(63,61,86);stroke-width:4px;stroke-linejoin:miter;stroke-miterlimit:10;"/>
    </g>
    <g transform="matrix(1,0,0,1,-11.5,-202.87)">
        <path d="M133.7,540.61C133.484,535.838 130.84,531.494 126.7,529.11L123.56,535.32L123.65,527.8C122.375,527.427 121.053,527.238 119.724,527.238C112.044,527.238 105.724,533.558 105.724,541.238C105.724,548.918 112.044,555.238 119.724,555.238C127.404,555.238 133.724,548.918 133.724,541.238C133.724,541.029 133.719,540.819 133.71,540.61L133.7,540.61Z" style="fill:rgb(87,184,148);fill-rule:nonzero;"/>
    </g>
    <g transform="matrix(1,0,0,1,-11.5,-202.87)">
        <path d="M108.67,635.6C106.271,640.249 101.46,643.181 96.228,643.181C88.548,643.181 82.228,636.861 82.228,629.181C82.228,621.501 88.548,615.181 96.228,615.181C102.064,615.181 107.315,618.83 109.35,624.3L100.58,631.43L110.23,629.2C110.226,631.427 109.692,633.621 108.67,635.6Z" style="fill:rgb(87,184,148);fill-rule:nonzero;"/>
    </g>
    <g transform="matrix(1,0,0,1,-11.5,-202.87)">
        <path d="M101.74,608.35C101.412,608.373 101.083,608.385 100.754,608.385C93.073,608.385 86.754,602.065 86.754,594.385C86.754,588.008 91.111,582.398 97.29,580.82L97.21,586.6L100.39,580.31C100.618,580.299 100.846,580.293 101.074,580.293C108.519,580.293 114.729,586.232 115.06,593.67C115.142,595.289 114.939,596.911 114.46,598.46C112.736,604.097 107.628,608.069 101.74,608.35Z" style="fill:rgb(87,184,148);fill-rule:nonzero;"/>
    </g>
    <g transform="matrix(1,0,0,1,-11.5,-202.87)">
        <path d="M135.81,585.68C135.636,585.687 135.461,585.69 135.286,585.69C127.606,585.69 121.286,579.37 121.286,571.69C121.286,564.01 127.606,557.69 135.286,557.69C137.636,557.69 139.949,558.281 142.01,559.41L139.53,566.21L144.64,561.31C147.372,563.812 149.002,567.299 149.17,571C149.237,572.3 149.119,573.603 148.82,574.87C147.385,580.955 142.054,585.384 135.81,585.68Z" style="fill:rgb(87,184,148);fill-rule:nonzero;"/>
    </g>
    <g transform="matrix(1,0,0,1,-11.5,-202.87)">
        <path d="M131.81,544.35C128.57,544.7 125.42,545.71 122.17,545.91C118.92,546.11 115.35,545.33 113.29,542.81C112.19,541.45 111.63,539.72 110.7,538.24C109.812,536.856 108.596,535.712 107.16,534.91C106.258,536.796 105.789,538.861 105.789,540.952C105.789,548.632 112.109,554.952 119.789,554.952C126.237,554.952 131.89,550.498 133.4,544.23C132.873,544.25 132.343,544.29 131.81,544.35Z" style="fill-opacity:0.1;fill-rule:nonzero;"/>
    </g>
    <g transform="matrix(1,0,0,1,-11.5,-202.87)">
        <path d="M135.81,585.68C135.574,585.692 135.337,585.698 135.101,585.698C127.42,585.698 121.101,579.378 121.101,571.698C121.101,569.616 121.565,567.56 122.46,565.68C123.574,566.429 124.531,567.386 125.28,568.5C126.28,570.01 126.89,571.76 128.06,573.14C130.25,575.71 133.98,576.55 137.37,576.4C140.76,576.25 144.03,575.28 147.37,574.97C147.84,574.97 148.31,574.9 148.79,574.89C147.351,580.957 142.037,585.374 135.81,585.68Z" style="fill-opacity:0.1;fill-rule:nonzero;"/>
    </g>
    <g transform="matrix(1,0,0,1,-11.5,-202.87)">
        <path d="M101.74,608.35C101.501,608.362 101.261,608.368 101.022,608.368C93.342,608.368 87.022,602.049 87.022,594.368C87.022,592.375 87.447,590.405 88.27,588.59C89.436,589.348 90.453,590.314 91.27,591.44C92.36,592.98 93.04,594.75 94.32,596.17C96.69,598.81 100.67,599.74 104.25,599.65C107.83,599.56 111.08,598.73 114.53,598.46C112.798,604.12 107.654,608.098 101.74,608.35Z" style="fill-opacity:0.1;fill-rule:nonzero;"/>
    </g>
    <g transform="matrix(1,0,0,1,-11.5,-202.87)">
        <path d="M108.67,635.6C106.417,640.636 101.392,643.892 95.875,643.892C88.185,643.892 81.858,637.565 81.858,629.875C81.858,627.902 82.274,625.951 83.08,624.15C84.241,624.904 85.279,625.832 86.16,626.9C87.5,628.52 88.38,630.37 89.92,631.9C92.79,634.72 97.42,635.9 101.55,635.99C103.929,636.001 106.306,635.871 108.67,635.6Z" style="fill-opacity:0.1;fill-rule:nonzero;"/>
    </g>
    <g transform="matrix(1,0,0,1,-11.5,-202.87)">
        <path d="M73.62,656.29C73.62,656.29 84.7,656 88,653.57C91.3,651.14 105,648.36 105.86,652.17C106.72,655.98 122.51,671.17 110,671.23C97.49,671.29 80.95,669.23 77.61,667.23C74.27,665.23 73.62,656.29 73.62,656.29Z" style="fill:rgb(101,99,128);fill-rule:nonzero;"/>
    </g>
    <g transform="matrix(1,0,0,1,-11.5,-202.87)">
        <path d="M110.27,669.9C97.76,670.01 81.21,667.96 77.88,665.9C75.34,664.35 74.33,658.8 73.99,656.25L73.62,656.25C73.62,656.25 74.32,665.18 77.62,667.25C80.92,669.32 97.51,671.33 110.01,671.25C113.62,671.25 114.87,669.94 114.8,668.04C114.33,669.17 113,669.88 110.27,669.9Z" style="fill-opacity:0.2;fill-rule:nonzero;"/>
    </g>
    <defs>
        <linearGradient id="_Linear1" x1="0" y1="0" x2="1" y2="0" gradientUnits="userSpaceOnUse" gradientTransform="matrix(1.46958e-17,-0.24,0.24,1.46958e-17,337.21,660.67)"><stop offset="0" style="stop-color:rgb(128,128,128);stop-opacity:0.25"/><stop offset="0.54" style="stop-color:rgb(128,128,128);stop-opacity:0.12"/><stop offset="1" style="stop-color:rgb(128,128,128);stop-opacity:0.1"/></linearGradient>
    </defs>
</svg>
