<?xml version="1.0" encoding="UTF-8" standalone="no"?>
<!DOCTYPE svg PUBLIC "-//W3C//DTD SVG 1.1//EN" "http://www.w3.org/Graphics/SVG/1.1/DTD/svg11.dtd">
<svg width="100%" height="100%" viewBox="0 0 512 512" version="1.1" xmlns="http://www.w3.org/2000/svg" xmlns:xlink="http://www.w3.org/1999/xlink" xml:space="preserve" xmlns:serif="http://www.serif.com/" style="fill-rule:evenodd;clip-rule:evenodd;stroke-linejoin:round;stroke-miterlimit:2;">
    <g>
        <g>
            <path d="M374.108,373.328C366.279,365.536 353.616,365.566 345.824,373.395L276,443.557L276,20C276,8.954 267.046,0 256,0C244.954,0 236,8.954 236,20L236,443.558L166.176,373.394C158.384,365.565 145.721,365.535 137.892,373.327C130.062,381.12 130.033,393.783 137.824,401.612L241.824,506.116C241.83,506.123 241.837,506.128 241.843,506.134C249.635,513.943 262.339,513.968 270.157,506.135C270.163,506.128 270.17,506.123 270.176,506.117L374.176,401.613C381.966,393.785 381.939,381.121 374.108,373.328Z" style="fill:white;fill-rule:nonzero;"/>
        </g>
    </g>
</svg>
