<?xml version="1.0" encoding="UTF-8" standalone="no"?>
<!DOCTYPE svg PUBLIC "-//W3C//DTD SVG 1.1//EN" "http://www.w3.org/Graphics/SVG/1.1/DTD/svg11.dtd">
<svg width="100%" height="100%" viewBox="0 0 901 787" version="1.1" xmlns="http://www.w3.org/2000/svg" xmlns:xlink="http://www.w3.org/1999/xlink" xml:space="preserve" xmlns:serif="http://www.serif.com/" style="fill-rule:evenodd;clip-rule:evenodd;stroke-miterlimit:10;">
    <rect x="763.63" y="283" width="52" height="27" style="fill:rgb(120,184,255);fill-opacity:0.2;"/>
    <rect x="767.63" y="316" width="52" height="27" style="fill:rgb(120,184,255);fill-opacity:0.2;"/>
    <rect x="724.63" y="87" width="52" height="27" style="fill:rgb(120,184,255);fill-opacity:0.2;"/>
    <rect x="761.63" y="118" width="52" height="27" style="fill:rgb(120,184,255);fill-opacity:0.2;"/>
    <rect x="661.63" y="89" width="52" height="27" style="fill:rgb(120,184,255);fill-opacity:0.2;"/>
    <rect x="828.63" y="149" width="52" height="27" style="fill:rgb(120,184,255);fill-opacity:0.2;"/>
    <rect x="765.63" y="151" width="52" height="27" style="fill:rgb(120,184,255);fill-opacity:0.2;"/>
    <rect x="698.63" y="120" width="52" height="27" style="fill:rgb(120,184,255);fill-opacity:0.2;"/>
    <rect x="825.63" y="357" width="52" height="27" style="fill:rgb(120,184,255);fill-opacity:0.2;"/>
    <rect x="762.63" y="359" width="52" height="27" style="fill:rgb(120,184,255);fill-opacity:0.2;"/>
    <g transform="matrix(1,0,0,1,-149.42,-56.5)">
        <path d="M280.17,332.5C280.17,332.5 353.46,405.79 312.09,514.5C270.72,623.21 383,804.14 383,804.14C383,804.14 381.8,803.96 379.57,803.57C229.05,777 154.26,604.85 238,477C269.08,429.41 294.62,373.64 280.17,332.5Z" style="fill:rgb(120,184,255);fill-rule:nonzero;"/>
    </g>
    <g transform="matrix(1,0,0,1,-149.42,-56.5)">
        <path d="M280.17,332.5C280.17,332.5 321.54,422.34 280.17,495.62C238.8,568.9 273.08,774.62 383.01,804.14" style="fill:none;fill-rule:nonzero;stroke:rgb(83,84,97);stroke-width:2px;"/>
    </g>
    <g transform="matrix(1,0,0,1,-149.42,-56.5)">
        <path d="M149.63,628.92C149.63,628.92 233.26,615.6 240.88,690.55C248.5,765.5 401.7,775.89 401.7,775.89C401.7,775.89 400.7,776.57 398.83,777.8C272.34,860.8 151.43,830.69 169.66,720.44C176.43,679.45 175.87,638.28 149.63,628.92Z" style="fill:rgb(120,184,255);fill-rule:nonzero;"/>
    </g>
    <g transform="matrix(1,0,0,1,-149.42,-56.5)">
        <path d="M149.63,628.92C149.63,628.92 233.26,615.6 240.88,690.55C248.5,765.5 401.7,775.89 401.7,775.89C401.7,775.89 400.7,776.57 398.83,777.8C272.34,860.8 151.43,830.69 169.66,720.44C176.43,679.45 175.87,638.28 149.63,628.92Z" style="fill:rgb(245,245,245);fill-opacity:0.2;fill-rule:nonzero;"/>
    </g>
    <g transform="matrix(1,0,0,1,-149.42,-56.5)">
        <path d="M149.63,628.92C149.63,628.92 214.54,643.17 209.21,702.19C203.88,761.21 305.61,832 401.7,775.89" style="fill:none;fill-rule:nonzero;stroke:rgb(83,84,97);stroke-width:2px;"/>
    </g>
    <rect x="0.63" y="284" width="52" height="27" style="fill:rgb(120,184,255);fill-opacity:0.2;"/>
    <rect x="37.63" y="315" width="52" height="27" style="fill:rgb(120,184,255);fill-opacity:0.2;"/>
    <rect x="318.63" y="0" width="52" height="27" style="fill:rgb(120,184,255);fill-opacity:0.2;"/>
    <rect x="728.63" y="498" width="52" height="27" style="fill:rgb(120,184,255);fill-opacity:0.2;"/>
    <rect x="41.63" y="348" width="52" height="27" style="fill:rgb(120,184,255);fill-opacity:0.2;"/>
    <rect x="355.63" y="31" width="52" height="27" style="fill:rgb(120,184,255);fill-opacity:0.2;"/>
    <rect x="165.63" y="214" width="52" height="27" style="fill:rgb(120,184,255);fill-opacity:0.2;"/>
    <rect x="202.63" y="245" width="52" height="27" style="fill:rgb(120,184,255);fill-opacity:0.2;"/>
    <rect x="301.63" y="228" width="52" height="27" style="fill:rgb(120,184,255);fill-opacity:0.2;"/>
    <rect x="206.63" y="278" width="52" height="27" style="fill:rgb(120,184,255);fill-opacity:0.2;"/>
    <rect x="798.63" y="498" width="52" height="27" style="fill:rgb(120,184,255);fill-opacity:0.2;"/>
    <g transform="matrix(1,0,0,1,-149.42,-56.5)">
        <path d="M870.07,447.61C866.703,428.872 864.638,409.923 863.89,390.9C862.531,358.875 841.051,330.998 810.43,321.52C804.97,319.84 798.96,318.27 792.32,316.86C734.12,304.5 716.44,315.29 714.43,316.71C712.728,313.616 711.247,310.404 710,307.1C709.9,306.76 709.81,306.42 709.71,306.1C721.226,293.819 728.247,277.99 729.62,261.21C739.33,251.37 745,239.49 745,226.7C745,215.7 740.8,205.38 733.45,196.45L733.45,179.07C733.45,137.614 699.336,103.5 657.88,103.5L651.75,103.5C610.294,103.5 576.18,137.614 576.18,179.07L576.18,197.8C569.51,206.41 565.73,216.24 565.73,226.68C565.73,239.2 571.17,250.84 580.51,260.56C581.786,277.954 589.129,294.36 601.25,306.9C601.66,309.74 602.08,312.79 602.49,316.01L498.39,338C498.39,338 458.25,339.65 432.39,393C410.52,438.19 367,554.29 354.11,588.85C351.78,595.11 350.46,598.7 350.46,598.7C350.46,598.7 350.89,598.27 351.7,597.53L350.46,600.9C350.46,600.9 351.09,600.26 352.29,599.21C350.47,613.67 350.21,638.5 369.15,641.59C385.03,644.18 425.95,645.25 456.86,645.68L459,645.68C479.49,645.95 495.08,645.95 495.08,645.95L495.08,645.68L827.52,645.68L827.52,642.27C827.524,639.177 826.901,636.116 825.69,633.27L826.15,632.71C827.929,635.059 829.113,637.804 829.6,640.71C829.562,640.993 829.508,641.273 829.44,641.55L829.64,641.04C829.718,641.948 829.651,642.863 829.44,643.75C829.229,644.637 872.09,533.86 871.63,468.24C871.752,461.33 871.23,454.423 870.07,447.61ZM604.22,330.86C603.669,327.725 603.315,324.559 603.16,321.38C603.005,318.201 603.16,321.32 603.16,321.29C603.53,324.38 603.89,327.58 604.22,330.86ZM475,566.9L475,593.09L458.6,596.6L475,566.9Z" style="fill:url(#_Linear1);fill-rule:nonzero;"/>
    </g>
    <path d="M503.71,57.57C545.166,57.57 579.28,91.684 579.28,133.14L579.28,165.38L428.14,165.38L428.14,133.14C428.14,91.684 462.254,57.57 503.71,57.57Z" style="fill:rgb(83,84,97);fill-rule:nonzero;"/>
    <ellipse cx="504.24" cy="175.95" rx="86.14" ry="59.19" style="fill:rgb(83,84,97);"/>
    <g transform="matrix(1,0,0,1,-149.42,-56.5)">
        <path d="M598.44,289.79C598.44,289.79 616.44,383.86 598.44,409.23C580.44,434.6 653.44,444.64 653.44,444.64L729,417.16L739.57,349.51C739.57,349.51 693.57,323.61 703.1,271.29L598.44,289.79Z" style="fill:rgb(247,196,167);fill-rule:nonzero;"/>
    </g>
    <g transform="matrix(1,0,0,1,-149.42,-56.5)">
        <path d="M821.46,606.89C821.46,606.89 826.22,627.5 800.32,631.2C785.027,633.45 769.475,633.264 754.24,630.65L748.53,578.88L808.78,578.88L821.46,606.89Z" style="fill:rgb(247,196,167);fill-rule:nonzero;"/>
    </g>
    <g transform="matrix(1,0,0,1,-149.42,-56.5)">
        <path d="M364.12,580.51C364.12,580.51 352.68,627 378.58,631.2C404.48,635.4 499.58,635.43 499.58,635.43L499.58,580.43L456.52,589.63L416.1,550.87L364.12,580.51Z" style="fill:rgb(247,196,167);fill-rule:nonzero;"/>
    </g>
    <g transform="matrix(1,0,0,1,-149.42,-56.5)">
        <path d="M604,320.18L502.79,341.58C502.79,341.58 464.21,343.17 439.37,394.43C414.53,445.69 360.62,592.09 360.62,592.09C360.62,592.09 406.62,545.58 460.51,595.26L496.45,530.26L488.52,633.32L767,633.32L767,584.69C767,584.69 825.13,615.87 820.91,633.31C820.91,633.31 870.66,505.13 859.91,446.88C856.674,428.872 854.689,410.662 853.97,392.38C852.672,361.6 832.024,334.807 802.59,325.71C797.35,324.1 791.59,322.59 785.19,321.24C725.47,308.56 710.19,321.24 710.19,321.24C710.19,321.24 698.62,358.88 698.83,375.94C699.09,397.87 667.65,412.41 667.65,412.41C667.65,412.41 621.14,401.31 619.03,392.33C616.92,383.35 600.28,330.75 604,320.18Z" style="fill-opacity:0.1;fill-rule:nonzero;"/>
    </g>
    <g transform="matrix(1,0,0,1,-149.42,-56.5)">
        <path d="M604,318.07L502.79,339.47C502.79,339.47 464.21,341.06 439.37,392.32C414.53,443.58 360.61,590 360.61,590C360.61,590 406.61,543.49 460.5,593.17L496.44,528.17L488.51,631.2L767,631.2L767,582.58C767,582.58 825.13,613.76 820.91,631.2C820.91,631.2 870.66,503.02 859.91,444.77C856.674,426.762 854.689,408.552 853.97,390.27C852.672,359.49 832.024,332.697 802.59,323.6C797.35,321.99 791.59,320.48 785.19,319.13C725.47,306.45 710.19,319.13 710.19,319.13C710.19,319.13 698.62,356.77 698.83,373.83C699.09,395.76 667.65,410.3 667.65,410.3C667.65,410.3 621.14,399.2 619.03,390.22C616.92,381.24 600.28,328.64 604,318.07Z" style="fill:rgb(246,246,246);fill-rule:nonzero;"/>
    </g>
    <g transform="matrix(1,0,0,1,-149.42,-56.5)">
        <path d="M707.42,313.58C703.169,301.545 702.216,288.588 704.66,276.06L600,294.55C600,294.55 601.51,302.46 603.22,314.31C616.759,328.359 635.452,336.305 654.963,336.305C674.823,336.305 693.821,328.072 707.4,313.58L707.42,313.58Z" style="fill-opacity:0.1;fill-rule:nonzero;"/>
    </g>
    <g transform="matrix(1,0,0,1,-149.42,-56.5)">
        <path d="M725.27,259.67C725.099,298.984 692.705,331.237 653.391,331.237C614.733,331.237 582.644,300.052 581.54,261.41L581.54,259.67C581.533,232.257 597.207,207.13 621.83,195.08C623.983,194.027 626.197,193.08 628.47,192.24C640.293,187.894 653.048,186.708 665.47,188.8C698.132,194.362 722.911,221.839 725.08,254.9C725.207,256.48 725.27,258.07 725.27,259.67Z" style="fill:rgb(247,196,167);fill-rule:nonzero;"/>
    </g>
    <g transform="matrix(1,0,0,1,-149.42,-56.5)">
        <path d="M683.37,194.32C677.681,191.707 671.673,189.854 665.5,188.81C670.561,189.975 675.084,192.816 678.33,196.87C679.921,199.034 681.241,201.385 682.26,203.87C662.912,195.41 640.792,195.868 621.81,205.12C626.32,215.01 640.31,220.4 649.65,224.01C659.877,227.957 670.21,231.567 680.65,234.84L671.41,227.34L692.28,230.66C692.505,226.507 692.011,222.345 690.82,218.36C694.82,221.58 700.12,222.66 704.46,225.36C712.59,230.49 715.98,240.36 720.41,248.91C721.58,251.17 722.96,253.48 725.07,254.91C723.335,228.631 707.296,205.327 683.37,194.32Z" style="fill:rgb(247,196,167);fill-rule:nonzero;stroke:rgb(247,196,167);stroke-width:1px;stroke-linejoin:round;stroke-miterlimit:2;"/>
    </g>
    <g transform="matrix(1,0,0,1,-149.42,-56.5)">
        <path d="M573.33,247.82C573.33,247.82 647.33,155.82 732.94,247.82L725.54,227.21C725.54,227.21 685.37,168.55 656.84,181.21C628.31,193.87 600.29,202.88 600.29,202.88L573.33,247.82Z" style="fill-opacity:0.1;fill-rule:nonzero;"/>
    </g>
    <g transform="matrix(1,0,0,1,-149.42,-56.5)">
        <path d="M573.33,246.19C573.33,246.19 647.33,154.19 732.94,246.19L725.54,225.58C725.54,225.58 685.37,166.92 656.84,179.58C628.31,192.24 600.29,201.25 600.29,201.25L573.33,246.19Z" style="fill:rgb(83,84,97);fill-rule:nonzero;"/>
    </g>
    <g transform="matrix(1,0,0,1,-149.42,-56.5)">
        <path d="M512.55,444.38C512.55,444.38 496.7,486.66 518.89,524.71C541.08,562.76 499.34,578.62 499.34,578.62" style="fill-opacity:0.1;fill-rule:nonzero;"/>
    </g>
    <g transform="matrix(1,0,0,1,-149.42,-56.5)">
        <path d="M769.4,406.33C769.4,406.33 796.88,441.21 778.91,472.39C760.94,503.57 762,578.62 762,578.62" style="fill-opacity:0.1;fill-rule:nonzero;"/>
    </g>
    <path d="M338.82,553.3L644.29,553.3C658.208,553.3 669.66,564.752 669.66,578.67L313.46,578.67C313.46,564.756 324.906,553.305 338.82,553.3Z" style="fill:rgb(83,84,97);fill-rule:nonzero;"/>
    <path d="M369.9,378.89L613.22,378.89C634.615,378.89 652.22,396.495 652.22,417.89L652.22,559.11L330.9,559.11L330.9,417.89C330.9,396.495 348.505,378.89 369.9,378.89Z" style="fill:rgb(83,84,97);fill-rule:nonzero;"/>
    <circle cx="491.29" cy="476.93" r="19.03" style="fill:white;"/>
    <g transform="matrix(1,0,0,1,-149.42,-56.5)">
        <path d="M577.56,204.7C577.56,204.7 650.28,132.02 728.71,203.37" style="fill:none;fill-rule:nonzero;stroke:black;stroke-opacity:0.1;stroke-width:1px;"/>
    </g>
    <rect x="590.36" y="143.57" width="7.3" height="41.39" style="fill:rgb(246,246,246);"/>
    <path d="M580.62,170.35C594.422,170.35 605.78,181.708 605.78,195.51L605.78,197.13C605.78,210.932 594.422,222.29 580.62,222.29L580.62,170.35Z" style="fill:rgb(255,77,90);fill-rule:nonzero;"/>
    <path d="M587.11,173.6C587.11,170.465 584.565,167.92 581.43,167.92C578.295,167.92 575.75,170.465 575.75,173.6L575.75,219.05C575.75,222.185 578.295,224.73 581.43,224.73C584.565,224.73 587.11,222.185 587.11,219.05L587.11,173.6Z" style="fill:rgb(246,246,246);"/>
    <g transform="matrix(-1,7.65714e-16,-7.65714e-16,-1,974.76,386.65)">
        <rect x="558.44" y="200.88" width="7.3" height="41.39" style="fill:rgb(246,246,246);"/>
    </g>
    <g transform="matrix(-1,-7.65714e-16,7.65714e-16,-1,976.38,450.76)">
        <path d="M550.32,227.66C564.122,227.66 575.48,239.018 575.48,252.82L575.48,254.44C575.48,268.242 564.122,279.6 550.32,279.6L550.32,227.66Z" style="fill:rgb(255,77,90);fill-rule:nonzero;"/>
    </g>
    <g transform="matrix(-1,7.65714e-16,-7.65714e-16,-1,999.92,450.76)">
        <path d="M580.35,230.91C580.35,227.775 577.805,225.23 574.67,225.23C571.535,225.23 568.99,227.775 568.99,230.91L568.99,276.36C568.99,279.495 571.535,282.04 574.67,282.04C577.805,282.04 580.35,279.495 580.35,276.36L580.35,230.91Z" style="fill:rgb(246,246,246);"/>
    </g>
    <g transform="matrix(1,0,0,1,-149.42,-56.5)">
        <path d="M738.92,155.83C729.03,135.27 707.49,110.41 661.06,108.42L661.06,108.36L660.5,108.36L644.05,109.14L644.05,109.22C597.93,111.34 576.49,136.11 566.63,156.6C560.063,170.49 556.577,185.637 556.41,201L562.09,200.86L567.77,200.73C568.015,187.052 571.161,173.581 577,161.21C589.52,135.49 612.56,121.82 645.47,120.55L660.02,119.74C692.95,121 716,134.69 728.51,160.4C734.358,172.776 737.511,186.254 737.76,199.94L743.44,200.07L749.12,200.21C748.957,184.855 745.477,169.715 738.92,155.83Z" style="fill:rgb(255,77,90);fill-rule:nonzero;"/>
    </g>
    <rect x="74.28" y="579" width="774.71" height="208" style="fill:rgb(156,156,159);"/>
    <rect x="74.28" y="593" width="774.71" height="27" style="fill-opacity:0.1;"/>
    <rect x="22.31" y="576" width="878.63" height="27" style="fill:rgb(156,156,159);"/>
    <defs>
        <linearGradient id="_Linear1" x1="0" y1="0" x2="1" y2="0" gradientUnits="userSpaceOnUse" gradientTransform="matrix(3.32185e-14,-542.5,542.5,3.32185e-14,611.05,646)"><stop offset="0" style="stop-color:rgb(128,128,128);stop-opacity:0.25"/><stop offset="0.54" style="stop-color:rgb(128,128,128);stop-opacity:0.12"/><stop offset="1" style="stop-color:rgb(128,128,128);stop-opacity:0.1"/></linearGradient>
    </defs>
</svg>
