<?xml version="1.0" encoding="UTF-8" standalone="no"?>
<!DOCTYPE svg PUBLIC "-//W3C//DTD SVG 1.1//EN" "http://www.w3.org/Graphics/SVG/1.1/DTD/svg11.dtd">
<svg width="100%" height="100%" viewBox="0 0 512 512" version="1.1" xmlns="http://www.w3.org/2000/svg" xmlns:xlink="http://www.w3.org/1999/xlink" xml:space="preserve" xmlns:serif="http://www.serif.com/" style="fill-rule:evenodd;clip-rule:evenodd;stroke-linejoin:round;stroke-miterlimit:2;">
    <g transform="matrix(1.07306,0,0,1.07306,-19.27,-20.6942)">
        <path d="M190.953,73.311L235.124,28.485C235.124,28.485 242.873,21.51 250.92,21.51C258.968,21.51 258.312,21.451 258.312,21.451C258.312,21.451 265.882,20.974 272.022,26.279C278.162,31.584 480.189,233.646 480.189,233.646C480.189,233.646 490.146,242.078 491.176,249.555C492.206,257.032 491.291,266.761 491.291,266.761C491.291,266.761 490.184,273.628 484.156,279.77C478.129,285.912 273.17,489.881 273.17,489.881C273.17,489.881 267.15,494.65 259.758,494.71C252.367,494.769 253.916,494.71 253.916,494.71C253.916,494.71 244.558,495.663 236.153,487.497C227.748,479.33 24.9,276.353 24.9,276.353C24.9,276.353 18.879,270.034 18.879,260.914C18.879,251.794 19.058,252.986 19.058,252.986C19.058,252.986 18.343,245.237 29.132,234.626C39.921,224.016 169.423,94.291 169.423,94.291L223.273,147.394C223.273,147.394 209.498,180.592 242.97,195.145L243.005,326.089C243.005,326.089 217.071,335.783 221.11,365.471C221.11,365.471 226.574,399.454 264.012,394.652C264.012,394.652 297.521,388.391 292.172,351.648C292.172,351.648 289.689,335.096 273.044,326.637L273.181,197.98L322.024,246.141C322.024,246.141 310.1,276.473 337.524,291.618C364.947,306.762 382.411,284.523 382.411,284.523C382.411,284.523 407.037,256.057 375.146,229.794C375.146,229.794 362.115,220.556 343.866,226.057L290.931,173.788C290.931,173.788 297.499,152.701 284.292,137.857C284.292,137.857 269.012,120.721 245.872,127.597L190.953,73.311Z" style="fill:rgb(240,81,51);"/>
    </g>
</svg>
