<?xml version="1.0" encoding="UTF-8" standalone="no"?>
<!DOCTYPE svg PUBLIC "-//W3C//DTD SVG 1.1//EN" "http://www.w3.org/Graphics/SVG/1.1/DTD/svg11.dtd">
<svg width="100%" height="100%" viewBox="0 0 512 512" version="1.1" xmlns="http://www.w3.org/2000/svg" xmlns:xlink="http://www.w3.org/1999/xlink" xml:space="preserve" xmlns:serif="http://www.serif.com/" style="fill-rule:evenodd;clip-rule:evenodd;stroke-linejoin:round;stroke-miterlimit:2;">
    <path d="M487.578,3.5C485.551,1.281 482.691,0 479.664,0L31.664,0C28.633,0 25.773,1.281 23.746,3.5C21.723,5.762 20.738,8.727 21.059,11.734L63.727,438.398C64.152,442.582 66.969,446.121 70.957,447.465L262.957,511.465C264.066,511.809 265.176,512 266.328,512C267.609,512 268.867,511.766 270.082,511.316L440.75,447.316C444.547,445.91 447.215,442.434 447.598,438.398L490.266,11.734C490.586,8.727 489.602,5.762 487.578,3.5Z" style="fill:rgb(255,193,7);fill-rule:nonzero;"/>
    <path d="M266.328,512C265.176,512 264.066,511.809 262.957,511.465L70.957,447.465C66.969,446.145 64.152,442.582 63.727,438.398L21.059,11.734C20.738,8.727 21.723,5.762 23.746,3.5C25.773,1.281 28.633,0 31.664,0L479.664,0C482.691,0 485.551,1.281 487.578,3.5C489.602,5.738 490.586,8.727 490.266,11.734L447.598,438.398C447.191,442.434 444.527,445.91 440.75,447.316L270.082,511.316C268.867,511.766 267.609,512 266.328,512ZM84.25,429.398L266.117,490.027L427.031,429.676L467.863,21.332L43.461,21.332L84.25,429.398Z" style="fill:rgb(255,193,7);fill-rule:nonzero;"/>
    <path d="M285.673,436.894C284.115,433.753 275.997,388.818 275.089,385.691L327.311,357.799L339.697,260.074C339.697,260.074 284.954,260.483 276.996,260.315L276.996,77.212C285.204,77.263 419.909,76.886 419.909,76.886C419.153,79.855 396.791,173.94 396.791,173.94C389.885,172.446 361.155,165.996 350.346,163.207L361.892,128L324.315,128L324.181,217.323L392.922,216.984C392.599,219.754 369.006,394.395 369.006,394.395C367.216,395.317 285.673,436.894 285.673,436.894Z" style="fill:white;fill-rule:nonzero;"/>
    <path d="M255.664,434.401C250.006,432.649 145.185,396.826 138.02,394.298L115.959,307.337C126.051,305.398 151.77,300.012 157.57,298.859C163.055,297.645 160.918,298.15 168.032,296.814L179.504,354.176L203.616,361.072L203.749,128L106.169,128C106.359,122.202 106.328,123.223 106.328,117.332C106.328,111.445 107.068,83.165 107.199,75.49L255.253,76.919C255.341,83.911 255.664,111.445 255.664,117.332L255.664,434.401Z" style="fill:white;fill-rule:nonzero;"/>
</svg>
