<?xml version="1.0" encoding="UTF-8" standalone="no"?>
<!DOCTYPE svg PUBLIC "-//W3C//DTD SVG 1.1//EN" "http://www.w3.org/Graphics/SVG/1.1/DTD/svg11.dtd">
<svg width="100%" height="100%" viewBox="0 0 512 512" version="1.1" xmlns="http://www.w3.org/2000/svg" xmlns:xlink="http://www.w3.org/1999/xlink" xml:space="preserve" xmlns:serif="http://www.serif.com/" style="fill-rule:evenodd;clip-rule:evenodd;stroke-linejoin:round;stroke-miterlimit:2;">
    <g>
        <g>
            <path d="M492,236L68.442,236L138.606,166.176C146.435,158.384 146.465,145.721 138.673,137.892C130.881,130.062 118.217,130.033 110.388,137.824L5.884,241.824C5.877,241.83 5.872,241.837 5.866,241.843C-1.943,249.635 -1.968,262.339 5.864,270.157C5.871,270.163 5.876,270.17 5.882,270.176L110.386,374.176C118.214,381.966 130.878,381.939 138.671,374.108C146.463,366.279 146.433,353.616 138.604,345.824L68.442,276L492,276C503.046,276 512,267.046 512,256C512,244.954 503.046,236 492,236Z" style="fill:white;fill-rule:nonzero;"/>
        </g>
    </g>
</svg>
