<?xml version="1.0" encoding="UTF-8" standalone="no"?>
<!DOCTYPE svg PUBLIC "-//W3C//DTD SVG 1.1//EN" "http://www.w3.org/Graphics/SVG/1.1/DTD/svg11.dtd">
<svg width="100%" height="100%" viewBox="0 0 1401 787" version="1.1" xmlns="http://www.w3.org/2000/svg" xmlns:xlink="http://www.w3.org/1999/xlink" xml:space="preserve" xmlns:serif="http://www.serif.com/" style="fill-rule:evenodd;clip-rule:evenodd;stroke-linejoin:round;stroke-miterlimit:2;">
    <g transform="matrix(1,0,0,1,150.299,21.3835)">
        <rect x="763.63" y="283" width="52" height="27" style="fill:rgb(120,184,255);"/>
    </g>
    <g transform="matrix(1,0,0,1,153.299,41.3835)">
        <rect x="767.63" y="316" width="52" height="27" style="fill:rgb(120,184,255);"/>
    </g>
    <g transform="matrix(1,0,0,1,74.1882,-34.0635)">
        <rect x="724.63" y="87" width="52" height="27" style="fill:rgb(120,184,255);"/>
    </g>
    <g transform="matrix(1,0,0,1,74.1882,-34.0635)">
        <rect x="761.63" y="118" width="52" height="27" style="fill:rgb(120,184,255);"/>
    </g>
    <g transform="matrix(1,0,0,1,74.1882,-34.0635)">
        <rect x="661.63" y="89" width="52" height="27" style="fill:rgb(120,184,255);"/>
    </g>
    <g transform="matrix(1,0,0,1,74.1882,-34.0635)">
        <rect x="828.63" y="149" width="52" height="27" style="fill:rgb(120,184,255);"/>
    </g>
    <g transform="matrix(1,0,0,1,74.1882,-34.0635)">
        <rect x="765.63" y="151" width="52" height="27" style="fill:rgb(120,184,255);"/>
    </g>
    <g transform="matrix(1,0,0,1,74.1882,-34.0635)">
        <rect x="698.63" y="120" width="52" height="27" style="fill:rgb(120,184,255);"/>
    </g>
    <g transform="matrix(1,0,0,1,-125.701,102.384)">
        <rect x="724.63" y="87" width="52" height="27" style="fill:rgb(120,184,255);"/>
    </g>
    <g transform="matrix(1,0,0,1,-125.701,102.384)">
        <rect x="761.63" y="118" width="52" height="27" style="fill:rgb(120,184,255);"/>
    </g>
    <g transform="matrix(1,0,0,1,-125.701,102.384)">
        <rect x="661.63" y="89" width="52" height="27" style="fill:rgb(120,184,255);"/>
    </g>
    <g transform="matrix(1,0,0,1,-88.7012,77.3835)">
        <rect x="828.63" y="149" width="52" height="27" style="fill:rgb(120,184,255);"/>
    </g>
    <g transform="matrix(1,0,0,1,-40.7012,180.384)">
        <rect x="765.63" y="151" width="52" height="27" style="fill:rgb(120,184,255);"/>
    </g>
    <g transform="matrix(1,0,0,1,-180.701,139.384)">
        <rect x="698.63" y="120" width="52" height="27" style="fill:rgb(120,184,255);"/>
    </g>
    <g transform="matrix(1,0,0,1,153.299,41.3835)">
        <rect x="825.63" y="357" width="52" height="27" style="fill:rgb(120,184,255);"/>
    </g>
    <g transform="matrix(1,0,0,1,153.299,41.3835)">
        <rect x="762.63" y="359" width="52" height="27" style="fill:rgb(120,184,255);"/>
    </g>
    <g transform="matrix(1,0,0,1,18.2988,15.3835)">
        <rect x="0.63" y="284" width="52" height="27" style="fill:rgb(120,184,255);"/>
    </g>
    <g transform="matrix(1,0,0,1,18.2988,15.3835)">
        <rect x="37.63" y="315" width="52" height="27" style="fill:rgb(120,184,255);"/>
    </g>
    <g transform="matrix(1,0,0,1,64.2988,15.3835)">
        <rect x="318.63" y="0" width="52" height="27" style="fill:rgb(120,184,255);"/>
    </g>
    <g transform="matrix(1,0,0,1,148.299,48.3835)">
        <rect x="728.63" y="498" width="52" height="27" style="fill:rgb(120,184,255);"/>
    </g>
    <g transform="matrix(1,0,0,1,18.2988,15.3835)">
        <rect x="41.63" y="348" width="52" height="27" style="fill:rgb(120,184,255);"/>
    </g>
    <g transform="matrix(1,0,0,1,64.2988,15.3835)">
        <rect x="355.63" y="31" width="52" height="27" style="fill:rgb(120,184,255);"/>
    </g>
    <g transform="matrix(1,0,0,1,18.2988,15.3835)">
        <rect x="165.63" y="214" width="52" height="27" style="fill:rgb(120,184,255);"/>
    </g>
    <g transform="matrix(1,0,0,1,64.2988,15.3835)">
        <rect x="202.63" y="245" width="52" height="27" style="fill:rgb(120,184,255);"/>
    </g>
    <g transform="matrix(1,0,0,1,64.2988,15.3835)">
        <rect x="301.63" y="228" width="52" height="27" style="fill:rgb(120,184,255);"/>
    </g>
    <g transform="matrix(1,0,0,1,64.2988,15.3835)">
        <rect x="206.63" y="278" width="52" height="27" style="fill:rgb(120,184,255);"/>
    </g>
    <g transform="matrix(1,0,0,1,174.299,58.3835)">
        <rect x="798.63" y="498" width="52" height="27" style="fill:rgb(120,184,255);"/>
    </g>
    <g transform="matrix(1,0,0,1,370.299,323.384)">
        <rect x="0.63" y="284" width="52" height="27" style="fill:rgb(120,184,255);"/>
    </g>
    <g transform="matrix(1,0,0,1,370.299,323.384)">
        <rect x="37.63" y="315" width="52" height="27" style="fill:rgb(120,184,255);"/>
    </g>
    <g transform="matrix(1,0,0,1,370.299,323.384)">
        <rect x="41.63" y="348" width="52" height="27" style="fill:rgb(120,184,255);"/>
    </g>
    <g transform="matrix(1,0,0,1,370.299,323.384)">
        <rect x="165.63" y="214" width="52" height="27" style="fill:rgb(120,184,255);"/>
    </g>
    <g transform="matrix(1,0,0,1,370.299,323.384)">
        <rect x="202.63" y="245" width="52" height="27" style="fill:rgb(120,184,255);"/>
    </g>
    <g transform="matrix(1,0,0,1,370.299,323.384)">
        <rect x="301.63" y="228" width="52" height="27" style="fill:rgb(120,184,255);"/>
    </g>
    <g transform="matrix(1,0,0,1,370.299,323.384)">
        <rect x="206.63" y="278" width="52" height="27" style="fill:rgb(120,184,255);"/>
    </g>
    <g transform="matrix(1,0,0,1,-274.701,53.3835)">
        <rect x="763.63" y="283" width="52" height="27" style="fill:rgb(120,184,255);"/>
    </g>
    <g transform="matrix(1,0,0,1,-310.701,75.3835)">
        <rect x="767.63" y="316" width="52" height="27" style="fill:rgb(120,184,255);"/>
    </g>
    <g transform="matrix(1,0,0,1,-274.701,53.3835)">
        <rect x="825.63" y="357" width="52" height="27" style="fill:rgb(120,184,255);"/>
    </g>
    <g transform="matrix(1,0,0,1,-368.701,82.3835)">
        <rect x="762.63" y="359" width="52" height="27" style="fill:rgb(120,184,255);"/>
    </g>
    <g transform="matrix(1,0,0,1,-596.701,393.384)">
        <rect x="724.63" y="87" width="52" height="27" style="fill:rgb(120,184,255);"/>
    </g>
    <g transform="matrix(1,0,0,1,-596.701,393.384)">
        <rect x="761.63" y="118" width="52" height="27" style="fill:rgb(120,184,255);"/>
    </g>
    <g transform="matrix(1,0,0,1,-596.701,393.384)">
        <rect x="661.63" y="89" width="52" height="27" style="fill:rgb(120,184,255);"/>
    </g>
    <g transform="matrix(1,0,0,1,-550.701,393.384)">
        <rect x="828.63" y="149" width="52" height="27" style="fill:rgb(120,184,255);"/>
    </g>
    <g transform="matrix(1,0,0,1,-550.701,393.384)">
        <rect x="765.63" y="151" width="52" height="27" style="fill:rgb(120,184,255);"/>
    </g>
    <g transform="matrix(1,0,0,1,-596.701,393.384)">
        <rect x="698.63" y="120" width="52" height="27" style="fill:rgb(120,184,255);"/>
    </g>
    <g transform="matrix(1,0,0,1,-560.701,-23.6165)">
        <rect x="724.63" y="87" width="52" height="27" style="fill:rgb(120,184,255);"/>
    </g>
    <g transform="matrix(1,0,0,1,-560.701,-23.6165)">
        <rect x="761.63" y="118" width="52" height="27" style="fill:rgb(120,184,255);"/>
    </g>
    <g transform="matrix(1,0,0,1,-523.701,-48.6165)">
        <rect x="828.63" y="149" width="52" height="27" style="fill:rgb(120,184,255);"/>
    </g>
    <g transform="matrix(1,0,0,1,-560.701,-23.6165)">
        <rect x="765.63" y="151" width="52" height="27" style="fill:rgb(120,184,255);"/>
    </g>
    <g transform="matrix(1,0,0,1,569.299,431.384)">
        <rect x="165.63" y="214" width="52" height="27" style="fill:rgb(120,184,255);"/>
    </g>
    <g transform="matrix(1,0,0,1,569.299,431.384)">
        <rect x="202.63" y="245" width="52" height="27" style="fill:rgb(120,184,255);"/>
    </g>
    <g transform="matrix(1,0,0,1,569.299,431.384)">
        <rect x="301.63" y="228" width="52" height="27" style="fill:rgb(120,184,255);"/>
    </g>
    <g transform="matrix(1,0,0,1,569.299,431.384)">
        <rect x="206.63" y="278" width="52" height="27" style="fill:rgb(120,184,255);"/>
    </g>
    <g transform="matrix(1,0,0,1,1179.76,346.129)">
        <rect x="37.63" y="315" width="52" height="27" style="fill:rgb(120,184,255);"/>
    </g>
    <g transform="matrix(1,0,0,1,1179.76,346.129)">
        <rect x="41.63" y="348" width="52" height="27" style="fill:rgb(120,184,255);"/>
    </g>
    <g transform="matrix(1,0,0,1,947.904,-102.191)">
        <rect x="165.63" y="214" width="52" height="27" style="fill:rgb(120,184,255);"/>
    </g>
    <g transform="matrix(1,0,0,1,993.904,-102.191)">
        <rect x="202.63" y="245" width="52" height="27" style="fill:rgb(120,184,255);"/>
    </g>
    <g transform="matrix(1,0,0,1,993.904,-102.191)">
        <rect x="301.63" y="228" width="52" height="27" style="fill:rgb(120,184,255);"/>
    </g>
    <g transform="matrix(1,0,0,1,993.904,-102.191)">
        <rect x="206.63" y="278" width="52" height="27" style="fill:rgb(120,184,255);"/>
    </g>
    <g transform="matrix(1,0,0,1,1299.9,205.809)">
        <rect x="0.63" y="284" width="52" height="27" style="fill:rgb(120,184,255);"/>
    </g>
    <g transform="matrix(1,0,0,1,1299.9,205.809)">
        <rect x="37.63" y="315" width="52" height="27" style="fill:rgb(120,184,255);"/>
    </g>
    <g transform="matrix(1,0,0,1,1299.9,205.809)">
        <rect x="41.63" y="348" width="52" height="27" style="fill:rgb(120,184,255);"/>
    </g>
    <g transform="matrix(1,0,0,1,560.904,-35.1906)">
        <rect x="762.63" y="359" width="52" height="27" style="fill:rgb(120,184,255);"/>
    </g>
    <g transform="matrix(1,0,0,1,332.904,275.809)">
        <rect x="724.63" y="87" width="52" height="27" style="fill:rgb(120,184,255);"/>
    </g>
    <g transform="matrix(1,0,0,1,398.833,139.555)">
        <rect x="761.63" y="118" width="52" height="27" style="fill:rgb(120,184,255);"/>
    </g>
    <g transform="matrix(1,0,0,1,418.612,223.066)">
        <rect x="661.63" y="89" width="52" height="27" style="fill:rgb(120,184,255);"/>
    </g>
    <g transform="matrix(1,0,0,1,378.904,275.809)">
        <rect x="828.63" y="149" width="52" height="27" style="fill:rgb(120,184,255);"/>
    </g>
    <g transform="matrix(1,0,0,1,444.833,139.555)">
        <rect x="765.63" y="151" width="52" height="27" style="fill:rgb(120,184,255);"/>
    </g>
    <g transform="matrix(1,0,0,1,364.769,375.802)">
        <rect x="698.63" y="120" width="52" height="27" style="fill:rgb(120,184,255);"/>
    </g>
    <g transform="matrix(1,0,0,1,368.904,-141.191)">
        <rect x="765.63" y="151" width="52" height="27" style="fill:rgb(120,184,255);"/>
    </g>
</svg>
