<?xml version="1.0" encoding="UTF-8" standalone="no"?>
<!DOCTYPE svg PUBLIC "-//W3C//DTD SVG 1.1//EN" "http://www.w3.org/Graphics/SVG/1.1/DTD/svg11.dtd">
<svg width="100%" height="100%" viewBox="0 0 512 512" version="1.1" xmlns="http://www.w3.org/2000/svg" xmlns:xlink="http://www.w3.org/1999/xlink" xml:space="preserve" xmlns:serif="http://www.serif.com/" style="fill-rule:evenodd;clip-rule:evenodd;stroke-linejoin:round;stroke-miterlimit:2;">
    <g>
        <g>
            <path d="M506.134,241.843C506.128,241.837 506.123,241.83 506.116,241.824L401.612,137.824C393.783,130.033 381.12,130.062 373.327,137.892C365.535,145.721 365.565,158.384 373.394,166.176L443.558,236L20,236C8.954,236 0,244.954 0,256C0,267.046 8.954,276 20,276L443.557,276L373.395,345.824C365.566,353.616 365.536,366.279 373.328,374.108C381.121,381.939 393.785,381.966 401.613,374.176L506.117,270.176C506.123,270.17 506.128,270.163 506.135,270.157C513.968,262.339 513.943,249.635 506.134,241.843Z" style="fill:white;fill-rule:nonzero;"/>
        </g>
    </g>
</svg>
