<?xml version="1.0" encoding="UTF-8" standalone="no"?>
<!DOCTYPE svg PUBLIC "-//W3C//DTD SVG 1.1//EN" "http://www.w3.org/Graphics/SVG/1.1/DTD/svg11.dtd">
<svg width="100%" height="100%" viewBox="0 0 1026 721" version="1.1" xmlns="http://www.w3.org/2000/svg" xmlns:xlink="http://www.w3.org/1999/xlink" xml:space="preserve" xmlns:serif="http://www.serif.com/" style="fill-rule:evenodd;clip-rule:evenodd;stroke-linejoin:round;stroke-miterlimit:2;">
    <ellipse cx="521.811" cy="689.117" rx="503.689" ry="31.597" style="fill:rgb(63,61,86);"/>
    <g transform="matrix(1,0,0,1,-87.25,-89.6433)">
        <path d="M125.941,747.782C137.491,769.202 162.004,778.397 162.004,778.397C162.004,778.397 167.791,752.864 156.241,731.444C144.691,710.024 120.178,700.829 120.178,700.829C120.178,700.829 114.391,726.362 125.941,747.782Z" style="fill:rgb(63,61,86);fill-rule:nonzero;"/>
    </g>
    <g transform="matrix(1,0,0,1,-87.25,-89.6433)">
        <path d="M133.88,740.735C154.732,753.28 162.763,778.199 162.763,778.199C162.763,778.199 136.986,782.778 116.133,770.232C95.281,757.687 87.25,732.768 87.25,732.768C87.25,732.768 113.027,728.19 133.88,740.735Z" style="fill:rgb(120,184,255);fill-rule:nonzero;"/>
    </g>
    <rect x="101.717" y="88.343" width="825.318" height="26.257" style="fill:rgb(242,242,242);"/>
    <path d="M927.035,681.247L101.717,681.247L101.717,504.122L192.831,425.792L927.035,370.122L927.035,681.247Z" style="fill:rgb(120,184,255);fill-rule:nonzero;"/>
    <circle cx="123.803" cy="101.085" r="6.795" style="fill:rgb(120,184,255);"/>
    <circle cx="145.888" cy="101.085" r="6.795" style="fill:rgb(120,184,255);"/>
    <circle cx="167.973" cy="101.085" r="6.795" style="fill:rgb(120,184,255);"/>
    <path d="M101.717,503.715L927.035,369.266L927.035,114.6L101.717,114.6L101.717,503.715Z" style="fill:white;fill-rule:nonzero;"/>
    <g transform="matrix(1,0,0,1,-87.25,-89.6433)">
        <path d="M921.889,649.923C899.609,646.148 878.182,642.907 857.608,640.198L865.742,624.429C862.999,623.476 850.95,632.507 850.95,632.507L861.623,586.732C847.83,588.396 840.817,635.134 840.817,635.134L825.406,619.332L832.867,637.098C769.899,629.682 715.518,626.933 669.777,626.834L676.738,613.337C673.996,612.384 661.946,621.415 661.946,621.415L672.62,575.64C658.826,577.304 651.813,624.042 651.813,624.042L636.403,608.24L644.305,627.057C612.965,627.575 581.673,629.7 550.551,633.425C557.592,612.4 581.511,592.403 581.511,592.403C563.244,597.835 553.663,606.939 548.656,615.427C548.208,572.044 555.422,528.921 569.965,488.046C584.508,447.171 532.208,570.208 537.026,625.358L537.602,635.151C505.593,639.734 489.5,644.503 489.5,644.503L921.889,649.923Z" style="fill:rgb(63,61,86);fill-rule:nonzero;"/>
    </g>
    <rect x="161.279" y="263.984" width="230.47" height="9.293" style="fill:rgb(63,61,86);"/>
    <rect x="161.279" y="284.429" width="230.47" height="9.293" style="fill:rgb(63,61,86);"/>
    <rect x="161.279" y="304.874" width="78.063" height="9.293" style="fill:rgb(63,61,86);"/>
    <circle cx="488.085" cy="663.612" r="9.066" style="fill:rgb(242,242,242);"/>
    <circle cx="514.376" cy="664.519" r="9.066" style="fill:rgb(242,242,242);"/>
    <circle cx="540.667" cy="665.425" r="9.066" style="fill:rgb(242,242,242);"/>
    <circle cx="514.459" cy="664.519" r="7.253" style="fill:rgb(63,61,86);"/>
    <circle cx="773.315" cy="133.243" r="83.979" style="fill:rgb(255,77,90);"/>
    <g transform="matrix(1,0,0,1,-87.25,-89.6433)">
        <path d="M919.019,324.046C935.553,436.878 874.248,486.098 791.512,498.222C789.59,498.503 787.674,498.762 785.764,498.998C781.918,499.477 778.098,499.858 774.304,500.142C698.857,505.797 634.768,472.885 619.392,367.952C603.48,259.359 722.187,101.98 731.111,90.322C731.12,90.321 731.12,90.321 731.128,90.31C731.467,89.866 731.641,89.643 731.641,89.643C731.641,89.643 902.487,211.224 919.019,324.046Z" style="fill:rgb(120,184,255);fill-rule:nonzero;"/>
    </g>
    <g transform="matrix(1,0,0,1,-87.25,-89.6433)">
        <path d="M783.53,481.762L827.104,397.175L784.623,490.186L785.764,498.998C781.918,499.477 778.098,499.858 774.304,500.142L763.667,386.399L763.493,385.533L763.57,385.352L762.568,374.604L695.019,297.5L761.563,366.589L762.032,368.831L753.995,282.894L693.955,201.788L752.378,267.822L731.111,90.322L731.043,89.731L731.128,90.31L750.789,229.865L789.61,167.709L752.346,241.903L762.295,318.449L795.389,238.743L763.765,329.702L769.298,372.265L817.961,260.935L771.22,387.115L783.53,481.762Z" style="fill:rgb(63,61,86);fill-rule:nonzero;"/>
    </g>
</svg>
